<?xml version="1.0" encoding="utf-8" standalone="no"?>
<!DOCTYPE svg PUBLIC "-//W3C//DTD SVG 1.1//EN"
  "http://www.w3.org/Graphics/SVG/1.1/DTD/svg11.dtd">
<svg xmlns:xlink="http://www.w3.org/1999/xlink" width="695.232pt" height="411.84pt" viewBox="0 0 695.232 411.84" xmlns="http://www.w3.org/2000/svg" version="1.1">
 <metadata>
  <rdf:RDF xmlns:dc="http://purl.org/dc/elements/1.1/" xmlns:cc="http://creativecommons.org/ns#" xmlns:rdf="http://www.w3.org/1999/02/22-rdf-syntax-ns#">
   <cc:Work>
    <dc:type rdf:resource="http://purl.org/dc/dcmitype/StillImage"/>
    <dc:date>2024-05-15T00:01:25.577258</dc:date>
    <dc:format>image/svg+xml</dc:format>
    <dc:creator>
     <cc:Agent>
      <dc:title>Matplotlib v3.5.1, https://matplotlib.org/</dc:title>
     </cc:Agent>
    </dc:creator>
   </cc:Work>
  </rdf:RDF>
 </metadata>
 <defs>
  <style type="text/css">*{stroke-linejoin: round; stroke-linecap: butt}</style>
 </defs>
 <g id="figure_1">
  <g id="patch_1">
   <path d="M 0 411.84 
L 695.232 411.84 
L 695.232 0 
L 0 0 
z
" style="fill: #ffffff"/>
  </g>
  <g id="axes_1">
   <g id="patch_2">
    <path d="M 86.904 366.5376 
L 625.7088 366.5376 
L 625.7088 49.4208 
L 86.904 49.4208 
z
" style="fill: #ffffff"/>
   </g>
   <g id="patch_3">
    <path d="M 94.8276 366.5376 
L 102.7512 366.5376 
L 102.7512 65.408831 
L 94.8276 65.408831 
z
" clip-path="url(#p6682a2aa79)" style="fill: #1f77b4"/>
   </g>
   <g id="patch_4">
    <path d="M 126.522 366.5376 
L 134.4456 366.5376 
L 134.4456 67.297196 
L 126.522 67.297196 
z
" clip-path="url(#p6682a2aa79)" style="fill: #1f77b4"/>
   </g>
   <g id="patch_5">
    <path d="M 158.2164 366.5376 
L 166.14 366.5376 
L 166.14 67.894256 
L 158.2164 67.894256 
z
" clip-path="url(#p6682a2aa79)" style="fill: #1f77b4"/>
   </g>
   <g id="patch_6">
    <path d="M 189.9108 366.5376 
L 197.8344 366.5376 
L 197.8344 70.486485 
L 189.9108 70.486485 
z
" clip-path="url(#p6682a2aa79)" style="fill: #1f77b4"/>
   </g>
   <g id="patch_7">
    <path d="M 221.6052 366.5376 
L 229.5288 366.5376 
L 229.5288 89.670695 
L 221.6052 89.670695 
z
" clip-path="url(#p6682a2aa79)" style="fill: #1f77b4"/>
   </g>
   <g id="patch_8">
    <path d="M 253.2996 366.5376 
L 261.2232 366.5376 
L 261.2232 136.702532 
L 253.2996 136.702532 
z
" clip-path="url(#p6682a2aa79)" style="fill: #1f77b4"/>
   </g>
   <g id="patch_9">
    <path d="M 284.994 366.5376 
L 292.9176 366.5376 
L 292.9176 270.209543 
L 284.994 270.209543 
z
" clip-path="url(#p6682a2aa79)" style="fill: #1f77b4"/>
   </g>
   <g id="patch_10">
    <path d="M 316.6884 366.5376 
L 324.612 366.5376 
L 324.612 103.615231 
L 316.6884 103.615231 
z
" clip-path="url(#p6682a2aa79)" style="fill: #1f77b4"/>
   </g>
   <g id="patch_11">
    <path d="M 348.3828 366.5376 
L 356.3064 366.5376 
L 356.3064 309.054677 
L 348.3828 309.054677 
z
" clip-path="url(#p6682a2aa79)" style="fill: #1f77b4"/>
   </g>
   <g id="patch_12">
    <path d="M 380.0772 366.5376 
L 388.0008 366.5376 
L 388.0008 361.630088 
L 380.0772 361.630088 
z
" clip-path="url(#p6682a2aa79)" style="fill: #1f77b4"/>
   </g>
   <g id="patch_13">
    <path d="M 411.7716 366.5376 
L 419.6952 366.5376 
L 419.6952 366.517561 
L 411.7716 366.517561 
z
" clip-path="url(#p6682a2aa79)" style="fill: #1f77b4"/>
   </g>
   <g id="patch_14">
    <path d="M 443.466 366.5376 
L 451.3896 366.5376 
L 451.3896 365.033109 
L 443.466 365.033109 
z
" clip-path="url(#p6682a2aa79)" style="fill: #1f77b4"/>
   </g>
   <g id="patch_15">
    <path d="M 475.1604 366.5376 
L 483.084 366.5376 
L 483.084 196.423084 
L 475.1604 196.423084 
z
" clip-path="url(#p6682a2aa79)" style="fill: #1f77b4"/>
   </g>
   <g id="patch_16">
    <path d="M 506.8548 366.5376 
L 514.7784 366.5376 
L 514.7784 276.294498 
L 506.8548 276.294498 
z
" clip-path="url(#p6682a2aa79)" style="fill: #1f77b4"/>
   </g>
   <g id="patch_17">
    <path d="M 538.5492 366.5376 
L 546.4728 366.5376 
L 546.4728 83.718182 
L 538.5492 83.718182 
z
" clip-path="url(#p6682a2aa79)" style="fill: #1f77b4"/>
   </g>
   <g id="patch_18">
    <path d="M 570.2436 366.5376 
L 578.1672 366.5376 
L 578.1672 362.749049 
L 570.2436 362.749049 
z
" clip-path="url(#p6682a2aa79)" style="fill: #1f77b4"/>
   </g>
   <g id="patch_19">
    <path d="M 601.938 366.5376 
L 609.8616 366.5376 
L 609.8616 300.705371 
L 601.938 300.705371 
z
" clip-path="url(#p6682a2aa79)" style="fill: #1f77b4"/>
   </g>
   <g id="patch_20">
    <path d="M 102.7512 366.5376 
L 110.6748 366.5376 
L 110.6748 365.63033 
L 102.7512 365.63033 
z
" clip-path="url(#p6682a2aa79)" style="fill: #ff7f0e"/>
   </g>
   <g id="patch_21">
    <path d="M 134.4456 366.5376 
L 142.3692 366.5376 
L 142.3692 363.741965 
L 134.4456 363.741965 
z
" clip-path="url(#p6682a2aa79)" style="fill: #ff7f0e"/>
   </g>
   <g id="patch_22">
    <path d="M 166.14 366.5376 
L 174.0636 366.5376 
L 174.0636 363.144905 
L 166.14 363.144905 
z
" clip-path="url(#p6682a2aa79)" style="fill: #ff7f0e"/>
   </g>
   <g id="patch_23">
    <path d="M 197.8344 366.5376 
L 205.758 366.5376 
L 205.758 360.552676 
L 197.8344 360.552676 
z
" clip-path="url(#p6682a2aa79)" style="fill: #ff7f0e"/>
   </g>
   <g id="patch_24">
    <path d="M 229.5288 366.5376 
L 237.4524 366.5376 
L 237.4524 341.368466 
L 229.5288 341.368466 
z
" clip-path="url(#p6682a2aa79)" style="fill: #ff7f0e"/>
   </g>
   <g id="patch_25">
    <path d="M 261.2232 366.5376 
L 269.1468 366.5376 
L 269.1468 294.336629 
L 261.2232 294.336629 
z
" clip-path="url(#p6682a2aa79)" style="fill: #ff7f0e"/>
   </g>
   <g id="patch_26">
    <path d="M 292.9176 366.5376 
L 300.8412 366.5376 
L 300.8412 160.829618 
L 292.9176 160.829618 
z
" clip-path="url(#p6682a2aa79)" style="fill: #ff7f0e"/>
   </g>
   <g id="patch_27">
    <path d="M 324.612 366.5376 
L 332.5356 366.5376 
L 332.5356 327.42393 
L 324.612 327.42393 
z
" clip-path="url(#p6682a2aa79)" style="fill: #ff7f0e"/>
   </g>
   <g id="patch_28">
    <path d="M 356.3064 366.5376 
L 364.23 366.5376 
L 364.23 121.984484 
L 356.3064 121.984484 
z
" clip-path="url(#p6682a2aa79)" style="fill: #ff7f0e"/>
   </g>
   <g id="patch_29">
    <path d="M 388.0008 366.5376 
L 395.9244 366.5376 
L 395.9244 69.409073 
L 388.0008 69.409073 
z
" clip-path="url(#p6682a2aa79)" style="fill: #ff7f0e"/>
   </g>
   <g id="patch_30">
    <path d="M 419.6952 366.5376 
L 427.6188 366.5376 
L 427.6188 64.5216 
L 419.6952 64.5216 
z
" clip-path="url(#p6682a2aa79)" style="fill: #ff7f0e"/>
   </g>
   <g id="patch_31">
    <path d="M 451.3896 366.5376 
L 459.3132 366.5376 
L 459.3132 66.006052 
L 451.3896 66.006052 
z
" clip-path="url(#p6682a2aa79)" style="fill: #ff7f0e"/>
   </g>
   <g id="patch_32">
    <path d="M 483.084 366.5376 
L 491.0076 366.5376 
L 491.0076 234.616077 
L 483.084 234.616077 
z
" clip-path="url(#p6682a2aa79)" style="fill: #ff7f0e"/>
   </g>
   <g id="patch_33">
    <path d="M 514.7784 366.5376 
L 522.702 366.5376 
L 522.702 154.744663 
L 514.7784 154.744663 
z
" clip-path="url(#p6682a2aa79)" style="fill: #ff7f0e"/>
   </g>
   <g id="patch_34">
    <path d="M 546.4728 366.5376 
L 554.3964 366.5376 
L 554.3964 347.320979 
L 546.4728 347.320979 
z
" clip-path="url(#p6682a2aa79)" style="fill: #ff7f0e"/>
   </g>
   <g id="patch_35">
    <path d="M 578.1672 366.5376 
L 586.0908 366.5376 
L 586.0908 68.290112 
L 578.1672 68.290112 
z
" clip-path="url(#p6682a2aa79)" style="fill: #ff7f0e"/>
   </g>
   <g id="patch_36">
    <path d="M 609.8616 366.5376 
L 617.7852 366.5376 
L 617.7852 130.33379 
L 609.8616 130.33379 
z
" clip-path="url(#p6682a2aa79)" style="fill: #ff7f0e"/>
   </g>
   <g id="matplotlib.axis_1">
    <g id="xtick_1">
     <g id="line2d_1">
      <defs>
       <path id="m2fe96dab67" d="M 0 0 
L 0 3.5 
" style="stroke: #000000; stroke-width: 0.8"/>
      </defs>
      <g>
       <use xlink:href="#m2fe96dab67" x="102.7512" y="366.5376" style="stroke: #000000; stroke-width: 0.8"/>
      </g>
     </g>
     <g id="text_1">
      <!-- 1 -->
      <g transform="translate(105.5637 378.5376)rotate(-90)scale(0.1 -0.1)">
       <defs>
        <path id="SimHei-31" d="M 1400 3600 
Q 1075 3275 575 2975 
L 575 3450 
Q 1200 3875 1600 4450 
L 1900 4450 
L 1900 150 
L 1400 150 
L 1400 3600 
z
" transform="scale(0.015625)"/>
       </defs>
       <use xlink:href="#SimHei-31"/>
      </g>
     </g>
    </g>
    <g id="xtick_2">
     <g id="line2d_2">
      <g>
       <use xlink:href="#m2fe96dab67" x="134.4456" y="366.5376" style="stroke: #000000; stroke-width: 0.8"/>
      </g>
     </g>
     <g id="text_2">
      <!-- 2 -->
      <g transform="translate(137.2581 378.5376)rotate(-90)scale(0.1 -0.1)">
       <defs>
        <path id="SimHei-32" d="M 300 250 
Q 325 625 650 925 
Q 975 1225 1475 1862 
Q 1975 2500 2125 2850 
Q 2275 3200 2237 3450 
Q 2200 3700 2000 3862 
Q 1800 4025 1537 4000 
Q 1275 3975 1037 3800 
Q 800 3625 675 3275 
L 200 3350 
Q 400 3925 712 4187 
Q 1025 4450 1450 4475 
Q 1700 4500 1900 4462 
Q 2100 4425 2312 4287 
Q 2525 4150 2662 3875 
Q 2800 3600 2762 3212 
Q 2725 2825 2375 2287 
Q 2025 1750 1025 600 
L 2825 600 
L 2825 150 
L 300 150 
L 300 250 
z
" transform="scale(0.015625)"/>
       </defs>
       <use xlink:href="#SimHei-32"/>
      </g>
     </g>
    </g>
    <g id="xtick_3">
     <g id="line2d_3">
      <g>
       <use xlink:href="#m2fe96dab67" x="166.14" y="366.5376" style="stroke: #000000; stroke-width: 0.8"/>
      </g>
     </g>
     <g id="text_3">
      <!-- 3 -->
      <g transform="translate(168.9525 378.5376)rotate(-90)scale(0.1 -0.1)">
       <defs>
        <path id="SimHei-33" d="M 250 1225 
L 700 1300 
Q 800 975 1025 762 
Q 1250 550 1587 562 
Q 1925 575 2125 837 
Q 2325 1100 2300 1437 
Q 2275 1775 2037 1962 
Q 1800 2150 1275 2225 
L 1275 2550 
Q 1800 2600 2037 2825 
Q 2275 3050 2250 3412 
Q 2225 3775 1925 3937 
Q 1625 4100 1287 3975 
Q 950 3850 750 3275 
L 300 3350 
Q 450 3800 712 4100 
Q 975 4400 1425 4450 
Q 1875 4500 2212 4337 
Q 2550 4175 2687 3837 
Q 2825 3500 2725 3100 
Q 2625 2700 2150 2400 
Q 2500 2250 2687 1950 
Q 2875 1650 2812 1162 
Q 2750 675 2375 375 
Q 2000 75 1525 87 
Q 1050 100 700 387 
Q 350 675 250 1225 
z
" transform="scale(0.015625)"/>
       </defs>
       <use xlink:href="#SimHei-33"/>
      </g>
     </g>
    </g>
    <g id="xtick_4">
     <g id="line2d_4">
      <g>
       <use xlink:href="#m2fe96dab67" x="197.8344" y="366.5376" style="stroke: #000000; stroke-width: 0.8"/>
      </g>
     </g>
     <g id="text_4">
      <!-- 4 -->
      <g transform="translate(200.6469 378.5376)rotate(-90)scale(0.1 -0.1)">
       <defs>
        <path id="SimHei-34" d="M 2000 1100 
L 75 1100 
L 75 1525 
L 2100 4450 
L 2475 4450 
L 2475 1525 
L 3075 1525 
L 3075 1100 
L 2475 1100 
L 2475 150 
L 2000 150 
L 2000 1100 
z
M 2000 1525 
L 2000 3500 
L 600 1525 
L 2000 1525 
z
" transform="scale(0.015625)"/>
       </defs>
       <use xlink:href="#SimHei-34"/>
      </g>
     </g>
    </g>
    <g id="xtick_5">
     <g id="line2d_5">
      <g>
       <use xlink:href="#m2fe96dab67" x="229.5288" y="366.5376" style="stroke: #000000; stroke-width: 0.8"/>
      </g>
     </g>
     <g id="text_5">
      <!-- 5 -->
      <g transform="translate(232.3413 378.5376)rotate(-90)scale(0.1 -0.1)">
       <defs>
        <path id="SimHei-35" d="M 550 1325 
Q 725 650 1150 575 
Q 1575 500 1837 662 
Q 2100 825 2212 1087 
Q 2325 1350 2312 1675 
Q 2300 2000 2137 2225 
Q 1975 2450 1725 2525 
Q 1475 2600 1162 2525 
Q 850 2450 650 2175 
L 225 2225 
Q 275 2375 700 4375 
L 2675 4375 
L 2675 3925 
L 1075 3925 
Q 950 3250 825 2850 
Q 1200 3025 1525 3012 
Q 1850 3000 2150 2862 
Q 2450 2725 2587 2487 
Q 2725 2250 2787 2012 
Q 2850 1775 2837 1500 
Q 2825 1225 2725 937 
Q 2625 650 2425 462 
Q 2225 275 1937 162 
Q 1650 50 1275 75 
Q 900 100 562 350 
Q 225 600 100 1200 
L 550 1325 
z
" transform="scale(0.015625)"/>
       </defs>
       <use xlink:href="#SimHei-35"/>
      </g>
     </g>
    </g>
    <g id="xtick_6">
     <g id="line2d_6">
      <g>
       <use xlink:href="#m2fe96dab67" x="261.2232" y="366.5376" style="stroke: #000000; stroke-width: 0.8"/>
      </g>
     </g>
     <g id="text_6">
      <!-- 6 -->
      <g transform="translate(264.0357 378.5376)rotate(-90)scale(0.1 -0.1)">
       <defs>
        <path id="SimHei-36" d="M 250 1612 
Q 275 1975 387 2225 
Q 500 2475 725 2850 
L 1750 4450 
L 2325 4450 
L 1275 2800 
Q 1950 2975 2350 2750 
Q 2750 2525 2887 2237 
Q 3025 1950 3037 1612 
Q 3050 1275 2937 950 
Q 2825 625 2537 362 
Q 2250 100 1737 75 
Q 1225 50 862 262 
Q 500 475 362 862 
Q 225 1250 250 1612 
z
M 1025 787 
Q 1250 550 1625 525 
Q 2000 500 2250 775 
Q 2500 1050 2500 1575 
Q 2500 2100 2187 2300 
Q 1875 2500 1487 2450 
Q 1100 2400 925 2075 
Q 750 1750 775 1387 
Q 800 1025 1025 787 
z
" transform="scale(0.015625)"/>
       </defs>
       <use xlink:href="#SimHei-36"/>
      </g>
     </g>
    </g>
    <g id="xtick_7">
     <g id="line2d_7">
      <g>
       <use xlink:href="#m2fe96dab67" x="292.9176" y="366.5376" style="stroke: #000000; stroke-width: 0.8"/>
      </g>
     </g>
     <g id="text_7">
      <!-- 7 -->
      <g transform="translate(295.7301 378.5376)rotate(-90)scale(0.1 -0.1)">
       <defs>
        <path id="SimHei-37" d="M 850 150 
Q 1300 2050 2425 3925 
L 275 3925 
L 275 4375 
L 2950 4375 
L 2950 3950 
Q 1775 2050 1400 150 
L 850 150 
z
" transform="scale(0.015625)"/>
       </defs>
       <use xlink:href="#SimHei-37"/>
      </g>
     </g>
    </g>
    <g id="xtick_8">
     <g id="line2d_8">
      <g>
       <use xlink:href="#m2fe96dab67" x="324.612" y="366.5376" style="stroke: #000000; stroke-width: 0.8"/>
      </g>
     </g>
     <g id="text_8">
      <!-- 8 -->
      <g transform="translate(327.4245 378.5376)rotate(-90)scale(0.1 -0.1)">
       <defs>
        <path id="SimHei-38" d="M 175 1375 
Q 175 1675 325 1962 
Q 475 2250 825 2425 
Q 525 2600 425 2812 
Q 325 3025 312 3300 
Q 300 3575 387 3775 
Q 475 3975 650 4150 
Q 825 4325 1037 4387 
Q 1250 4450 1500 4450 
Q 1750 4450 1950 4400 
Q 2150 4350 2375 4187 
Q 2600 4025 2700 3725 
Q 2800 3425 2687 3025 
Q 2575 2625 2100 2400 
Q 2525 2275 2700 2012 
Q 2875 1750 2875 1375 
Q 2875 1000 2762 775 
Q 2650 550 2512 400 
Q 2375 250 2137 162 
Q 1900 75 1537 75 
Q 1175 75 912 162 
Q 650 250 475 425 
Q 300 600 237 837 
Q 175 1075 175 1375 
z
M 687 1400 
Q 675 1100 787 875 
Q 900 650 1200 587 
Q 1500 525 1825 600 
Q 2150 675 2275 950 
Q 2400 1225 2362 1500 
Q 2325 1775 2050 1962 
Q 1775 2150 1450 2125 
Q 1125 2100 912 1900 
Q 700 1700 687 1400 
z
M 775 3350 
Q 775 3100 950 2875 
Q 1125 2650 1500 2650 
Q 1875 2650 2062 2875 
Q 2250 3100 2237 3412 
Q 2225 3725 2012 3875 
Q 1800 4025 1437 4000 
Q 1075 3975 925 3787 
Q 775 3600 775 3350 
z
" transform="scale(0.015625)"/>
       </defs>
       <use xlink:href="#SimHei-38"/>
      </g>
     </g>
    </g>
    <g id="xtick_9">
     <g id="line2d_9">
      <g>
       <use xlink:href="#m2fe96dab67" x="356.3064" y="366.5376" style="stroke: #000000; stroke-width: 0.8"/>
      </g>
     </g>
     <g id="text_9">
      <!-- 9 -->
      <g transform="translate(359.1189 378.5376)rotate(-90)scale(0.1 -0.1)">
       <defs>
        <path id="SimHei-39" d="M 800 75 
Q 1350 1000 1700 1750 
Q 1075 1650 662 1912 
Q 250 2175 162 2625 
Q 75 3075 175 3437 
Q 275 3800 487 4037 
Q 700 4275 1000 4375 
Q 1300 4475 1537 4475 
Q 1775 4475 2025 4375 
Q 2275 4275 2475 4075 
Q 2675 3875 2750 3662 
Q 2825 3450 2825 3112 
Q 2825 2775 2575 2250 
Q 2325 1725 1350 75 
L 800 75 
z
M 662 2875 
Q 700 2550 937 2337 
Q 1175 2125 1450 2150 
Q 1725 2175 1887 2300 
Q 2050 2425 2200 2725 
Q 2300 3100 2250 3362 
Q 2200 3625 1987 3800 
Q 1775 3975 1525 3975 
Q 1375 4000 1137 3900 
Q 900 3800 762 3500 
Q 625 3200 662 2875 
z
" transform="scale(0.015625)"/>
       </defs>
       <use xlink:href="#SimHei-39"/>
      </g>
     </g>
    </g>
    <g id="xtick_10">
     <g id="line2d_10">
      <g>
       <use xlink:href="#m2fe96dab67" x="388.0008" y="366.5376" style="stroke: #000000; stroke-width: 0.8"/>
      </g>
     </g>
     <g id="text_10">
      <!-- 10 -->
      <g transform="translate(390.8133 383.5376)rotate(-90)scale(0.1 -0.1)">
       <defs>
        <path id="SimHei-30" d="M 225 2537 
Q 250 3200 412 3587 
Q 575 3975 875 4225 
Q 1175 4475 1612 4475 
Q 2050 4475 2375 4112 
Q 2700 3750 2800 3200 
Q 2900 2650 2862 1937 
Q 2825 1225 2612 775 
Q 2400 325 1975 150 
Q 1550 -25 1125 187 
Q 700 400 525 750 
Q 350 1100 275 1487 
Q 200 1875 225 2537 
z
M 750 2687 
Q 675 2000 800 1462 
Q 925 925 1212 700 
Q 1500 475 1800 612 
Q 2100 750 2237 1162 
Q 2375 1575 2375 2062 
Q 2375 2550 2337 2950 
Q 2300 3350 2112 3675 
Q 1925 4000 1612 4012 
Q 1300 4025 1062 3700 
Q 825 3375 750 2687 
z
" transform="scale(0.015625)"/>
       </defs>
       <use xlink:href="#SimHei-31"/>
       <use xlink:href="#SimHei-30" x="50"/>
      </g>
     </g>
    </g>
    <g id="xtick_11">
     <g id="line2d_11">
      <g>
       <use xlink:href="#m2fe96dab67" x="419.6952" y="366.5376" style="stroke: #000000; stroke-width: 0.8"/>
      </g>
     </g>
     <g id="text_11">
      <!-- 11 -->
      <g transform="translate(422.5077 383.5376)rotate(-90)scale(0.1 -0.1)">
       <use xlink:href="#SimHei-31"/>
       <use xlink:href="#SimHei-31" x="50"/>
      </g>
     </g>
    </g>
    <g id="xtick_12">
     <g id="line2d_12">
      <g>
       <use xlink:href="#m2fe96dab67" x="451.3896" y="366.5376" style="stroke: #000000; stroke-width: 0.8"/>
      </g>
     </g>
     <g id="text_12">
      <!-- 12 -->
      <g transform="translate(454.2021 383.5376)rotate(-90)scale(0.1 -0.1)">
       <use xlink:href="#SimHei-31"/>
       <use xlink:href="#SimHei-32" x="50"/>
      </g>
     </g>
    </g>
    <g id="xtick_13">
     <g id="line2d_13">
      <g>
       <use xlink:href="#m2fe96dab67" x="483.084" y="366.5376" style="stroke: #000000; stroke-width: 0.8"/>
      </g>
     </g>
     <g id="text_13">
      <!-- 13 -->
      <g transform="translate(485.8965 383.5376)rotate(-90)scale(0.1 -0.1)">
       <use xlink:href="#SimHei-31"/>
       <use xlink:href="#SimHei-33" x="50"/>
      </g>
     </g>
    </g>
    <g id="xtick_14">
     <g id="line2d_14">
      <g>
       <use xlink:href="#m2fe96dab67" x="514.7784" y="366.5376" style="stroke: #000000; stroke-width: 0.8"/>
      </g>
     </g>
     <g id="text_14">
      <!-- 14 -->
      <g transform="translate(517.5909 383.5376)rotate(-90)scale(0.1 -0.1)">
       <use xlink:href="#SimHei-31"/>
       <use xlink:href="#SimHei-34" x="50"/>
      </g>
     </g>
    </g>
    <g id="xtick_15">
     <g id="line2d_15">
      <g>
       <use xlink:href="#m2fe96dab67" x="546.4728" y="366.5376" style="stroke: #000000; stroke-width: 0.8"/>
      </g>
     </g>
     <g id="text_15">
      <!-- 15 -->
      <g transform="translate(549.2853 383.5376)rotate(-90)scale(0.1 -0.1)">
       <use xlink:href="#SimHei-31"/>
       <use xlink:href="#SimHei-35" x="50"/>
      </g>
     </g>
    </g>
    <g id="xtick_16">
     <g id="line2d_16">
      <g>
       <use xlink:href="#m2fe96dab67" x="578.1672" y="366.5376" style="stroke: #000000; stroke-width: 0.8"/>
      </g>
     </g>
     <g id="text_16">
      <!-- 16 -->
      <g transform="translate(580.9797 383.5376)rotate(-90)scale(0.1 -0.1)">
       <use xlink:href="#SimHei-31"/>
       <use xlink:href="#SimHei-36" x="50"/>
      </g>
     </g>
    </g>
    <g id="xtick_17">
     <g id="line2d_17">
      <g>
       <use xlink:href="#m2fe96dab67" x="609.8616" y="366.5376" style="stroke: #000000; stroke-width: 0.8"/>
      </g>
     </g>
     <g id="text_17">
      <!-- 17 -->
      <g transform="translate(612.6741 383.5376)rotate(-90)scale(0.1 -0.1)">
       <use xlink:href="#SimHei-31"/>
       <use xlink:href="#SimHei-37" x="50"/>
      </g>
     </g>
    </g>
    <g id="text_18">
     <!-- 样本编号 -->
     <g transform="translate(336.3064 395.584475)scale(0.1 -0.1)">
      <defs>
       <path id="SimHei-6837" d="M 4350 4025 
Q 4600 4575 4850 5225 
Q 5250 5075 5375 5000 
Q 5150 4725 4850 4025 
L 4950 4025 
Q 5650 4050 5950 4050 
L 5950 3600 
Q 5675 3625 5175 3625 
L 4550 3625 
L 4550 2650 
L 4950 2650 
Q 5525 2675 5800 2675 
L 5800 2225 
Q 5475 2250 5025 2250 
L 4550 2250 
L 4550 1225 
L 5325 1225 
Q 5800 1250 6100 1250 
L 6100 800 
Q 5825 825 5325 825 
L 4550 825 
L 4550 275 
Q 4550 -250 4575 -600 
L 4075 -600 
L 4075 825 
L 3475 825 
Q 3000 825 2550 800 
L 2550 1275 
Q 3000 1250 3500 1225 
L 4075 1225 
L 4075 2250 
L 3650 2250 
Q 3225 2250 2900 2225 
L 2900 2700 
Q 3200 2675 3675 2650 
L 4075 2650 
L 4075 3625 
L 3475 3625 
Q 3050 3625 2750 3600 
L 2750 4075 
Q 3050 4050 3475 4025 
L 4350 4025 
z
M 1325 4350 
Q 1325 4775 1300 5125 
L 1825 5125 
Q 1800 4725 1800 4350 
L 1800 3750 
Q 2125 3750 2475 3775 
L 2475 3325 
Q 2125 3350 1800 3350 
L 1800 2425 
Q 2000 2600 2100 2675 
Q 2375 2325 2725 1775 
Q 2575 1700 2300 1475 
Q 2025 1975 1800 2350 
L 1800 475 
Q 1800 -50 1825 -575 
L 1300 -575 
Q 1325 -25 1325 475 
L 1325 2250 
Q 925 1300 525 725 
Q 425 950 225 1175 
Q 950 2150 1225 3350 
Q 825 3350 350 3325 
L 350 3775 
Q 825 3750 1325 3750 
L 1325 4350 
z
M 3575 5200 
Q 3800 4775 3950 4350 
Q 3650 4250 3525 4175 
Q 3350 4600 3150 5000 
Q 3425 5125 3575 5200 
z
" transform="scale(0.015625)"/>
       <path id="SimHei-672c" d="M 2950 3925 
L 2950 4425 
Q 2950 4825 2925 5175 
L 3475 5175 
Q 3450 4900 3450 4450 
L 3450 3925 
L 4850 3925 
Q 5275 3925 5850 3950 
L 5850 3475 
Q 5300 3500 4875 3500 
L 3850 3500 
Q 4200 2350 4862 1687 
Q 5525 1025 6075 800 
Q 5850 625 5650 325 
Q 4800 900 4262 1637 
Q 3725 2375 3450 3350 
L 3450 1000 
L 3775 1000 
Q 4175 1000 4600 1025 
L 4600 550 
Q 4175 575 3750 575 
L 3450 575 
Q 3450 0 3475 -600 
L 2925 -600 
Q 2950 0 2950 575 
L 2625 575 
Q 2225 575 1825 550 
L 1825 1025 
Q 2225 1000 2625 1000 
L 2950 1000 
L 2950 3300 
Q 2550 2275 2062 1575 
Q 1575 875 750 175 
Q 550 450 275 575 
Q 1100 1075 1650 1825 
Q 2200 2575 2525 3500 
L 1425 3500 
Q 1025 3500 575 3475 
L 575 3950 
Q 1025 3925 1400 3925 
L 2950 3925 
z
" transform="scale(0.015625)"/>
       <path id="SimHei-7f16" d="M 4275 5250 
Q 4375 4850 4475 4500 
L 5775 4500 
Q 5750 4200 5750 3825 
Q 5750 3450 5775 3175 
L 3100 3175 
Q 3075 2800 3050 2550 
L 6000 2550 
Q 5975 2150 5975 1700 
L 5975 -25 
Q 5975 -400 5812 -500 
Q 5650 -600 5275 -700 
Q 5200 -400 5050 -150 
Q 5400 -150 5475 -112 
Q 5550 -75 5550 150 
L 5550 1000 
L 5050 1000 
Q 5050 450 5075 -50 
L 4625 -50 
Q 4650 450 4650 1000 
L 4150 1000 
Q 4150 225 4175 -75 
L 3725 -75 
Q 3750 225 3750 1000 
L 3250 1000 
L 3250 -650 
L 2775 -650 
Q 2825 -175 2825 275 
L 2825 1625 
Q 2625 1075 2350 600 
Q 2175 925 2025 1100 
Q 2250 1400 2375 1700 
Q 2500 2000 2575 2525 
Q 2650 3050 2650 3575 
Q 2650 4100 2625 4500 
L 3925 4500 
Q 3875 4775 3750 5100 
Q 4075 5175 4275 5250 
z
M 1825 4875 
Q 1675 4725 1387 4150 
Q 1100 3575 875 3150 
L 1575 3175 
Q 1725 3475 1875 3850 
Q 2100 3675 2375 3500 
Q 2150 3275 1862 2812 
Q 1575 2350 1075 1675 
Q 1600 1725 2075 1800 
L 2025 1350 
Q 1725 1325 1350 1275 
Q 975 1225 550 1050 
Q 500 1325 400 1575 
Q 600 1600 825 1925 
Q 1050 2250 1400 2800 
Q 1175 2800 950 2775 
Q 725 2750 450 2650 
Q 375 2950 275 3175 
Q 525 3225 800 3862 
Q 1075 4500 1225 5125 
Q 1525 4950 1825 4875 
z
M 5325 3525 
L 5325 4150 
L 3100 4150 
L 3100 3525 
L 5325 3525 
z
M 2100 800 
Q 2075 525 2100 300 
Q 1575 175 1212 50 
Q 850 -75 400 -300 
L 200 300 
Q 500 325 1037 462 
Q 1575 600 2100 800 
z
M 4650 1350 
L 4650 2200 
L 4150 2200 
L 4150 1350 
L 4650 1350 
z
M 5550 1350 
L 5550 2200 
L 5050 2200 
L 5050 1350 
L 5550 1350 
z
M 3750 1350 
L 3750 2200 
L 3250 2200 
L 3250 1350 
L 3750 1350 
z
" transform="scale(0.015625)"/>
       <path id="SimHei-53f7" d="M 5025 4925 
Q 5000 4550 5000 4075 
Q 5000 3600 5025 3175 
L 1400 3175 
Q 1425 3525 1425 4000 
Q 1425 4500 1400 4925 
L 5025 4925 
z
M 5175 2625 
Q 5650 2625 6025 2650 
L 6025 2200 
Q 5650 2225 5175 2225 
L 2450 2225 
Q 2350 1875 2225 1450 
L 5175 1450 
Q 5100 1050 5062 775 
Q 5025 500 4950 112 
Q 4875 -275 4650 -412 
Q 4425 -550 3225 -625 
Q 3125 -350 2975 -50 
Q 3875 -75 4112 -50 
Q 4350 -25 4425 212 
Q 4500 450 4575 1025 
L 1600 1025 
Q 1825 1625 1950 2225 
L 1350 2225 
Q 825 2225 375 2200 
L 375 2650 
Q 825 2625 1350 2625 
L 5175 2625 
z
M 4525 3575 
L 4525 4525 
L 1900 4525 
L 1900 3575 
L 4525 3575 
z
" transform="scale(0.015625)"/>
      </defs>
      <use xlink:href="#SimHei-6837"/>
      <use xlink:href="#SimHei-672c" x="100"/>
      <use xlink:href="#SimHei-7f16" x="200"/>
      <use xlink:href="#SimHei-53f7" x="300"/>
     </g>
    </g>
   </g>
   <g id="matplotlib.axis_2">
    <g id="ytick_1">
     <g id="line2d_18">
      <defs>
       <path id="m45927ef54e" d="M 0 0 
L -3.5 0 
" style="stroke: #000000; stroke-width: 0.8"/>
      </defs>
      <g>
       <use xlink:href="#m45927ef54e" x="86.904" y="366.5376" style="stroke: #000000; stroke-width: 0.8"/>
      </g>
     </g>
     <g id="text_19">
      <!-- 0.0 -->
      <g transform="translate(64.904 369.9751)scale(0.1 -0.1)">
       <defs>
        <path id="SimHei-2e" d="M 1075 125 
L 500 125 
L 500 675 
L 1075 675 
L 1075 125 
z
" transform="scale(0.015625)"/>
       </defs>
       <use xlink:href="#SimHei-30"/>
       <use xlink:href="#SimHei-2e" x="50"/>
       <use xlink:href="#SimHei-30" x="100"/>
      </g>
     </g>
    </g>
    <g id="ytick_2">
     <g id="line2d_19">
      <g>
       <use xlink:href="#m45927ef54e" x="86.904" y="306.130392" style="stroke: #000000; stroke-width: 0.8"/>
      </g>
     </g>
     <g id="text_20">
      <!-- 0.2 -->
      <g transform="translate(64.904 309.567892)scale(0.1 -0.1)">
       <use xlink:href="#SimHei-30"/>
       <use xlink:href="#SimHei-2e" x="50"/>
       <use xlink:href="#SimHei-32" x="100"/>
      </g>
     </g>
    </g>
    <g id="ytick_3">
     <g id="line2d_20">
      <g>
       <use xlink:href="#m45927ef54e" x="86.904" y="245.723184" style="stroke: #000000; stroke-width: 0.8"/>
      </g>
     </g>
     <g id="text_21">
      <!-- 0.4 -->
      <g transform="translate(64.904 249.160684)scale(0.1 -0.1)">
       <use xlink:href="#SimHei-30"/>
       <use xlink:href="#SimHei-2e" x="50"/>
       <use xlink:href="#SimHei-34" x="100"/>
      </g>
     </g>
    </g>
    <g id="ytick_4">
     <g id="line2d_21">
      <g>
       <use xlink:href="#m45927ef54e" x="86.904" y="185.315977" style="stroke: #000000; stroke-width: 0.8"/>
      </g>
     </g>
     <g id="text_22">
      <!-- 0.6 -->
      <g transform="translate(64.904 188.753477)scale(0.1 -0.1)">
       <use xlink:href="#SimHei-30"/>
       <use xlink:href="#SimHei-2e" x="50"/>
       <use xlink:href="#SimHei-36" x="100"/>
      </g>
     </g>
    </g>
    <g id="ytick_5">
     <g id="line2d_22">
      <g>
       <use xlink:href="#m45927ef54e" x="86.904" y="124.908769" style="stroke: #000000; stroke-width: 0.8"/>
      </g>
     </g>
     <g id="text_23">
      <!-- 0.8 -->
      <g transform="translate(64.904 128.346269)scale(0.1 -0.1)">
       <use xlink:href="#SimHei-30"/>
       <use xlink:href="#SimHei-2e" x="50"/>
       <use xlink:href="#SimHei-38" x="100"/>
      </g>
     </g>
    </g>
    <g id="ytick_6">
     <g id="line2d_23">
      <g>
       <use xlink:href="#m45927ef54e" x="86.904" y="64.501561" style="stroke: #000000; stroke-width: 0.8"/>
      </g>
     </g>
     <g id="text_24">
      <!-- 1.0 -->
      <g transform="translate(64.904 67.939061)scale(0.1 -0.1)">
       <use xlink:href="#SimHei-31"/>
       <use xlink:href="#SimHei-2e" x="50"/>
       <use xlink:href="#SimHei-30" x="100"/>
      </g>
     </g>
    </g>
    <g id="text_25">
     <!-- 概率 -->
     <g transform="translate(59.654 217.9792)rotate(-90)scale(0.1 -0.1)">
      <defs>
       <path id="SimHei-6982" d="M 3100 1150 
Q 3000 1350 2900 1475 
Q 3075 1600 3275 1725 
Q 3425 1475 3537 1262 
Q 3650 1050 3825 750 
Q 3675 625 3425 450 
Q 3375 600 3275 800 
Q 3075 625 2775 412 
Q 2475 200 2250 -50 
Q 2075 200 1925 350 
Q 2100 525 2125 875 
L 2125 4000 
Q 2125 4425 2100 4700 
L 3575 4700 
Q 3550 4325 3550 3475 
Q 3550 2650 3575 2200 
L 2550 2200 
L 2550 750 
Q 2725 850 3100 1150 
z
M 3325 -700 
Q 3200 -500 2950 -325 
Q 3400 -75 3850 637 
Q 4300 1350 4500 2350 
L 3800 2350 
Q 3825 2725 3825 3075 
Q 3825 3425 3800 3750 
L 4275 3750 
Q 4225 3550 4225 3250 
L 4225 2725 
L 4600 2725 
Q 4675 3500 4675 4400 
L 4425 4400 
Q 4075 4400 3800 4375 
L 3800 4800 
Q 4100 4775 4425 4775 
L 5150 4775 
Q 5625 4775 5850 4800 
L 5850 4375 
Q 5650 4400 5100 4400 
Q 5100 3700 5025 2725 
L 5375 2725 
Q 5600 2725 5925 2750 
L 5925 2325 
Q 5600 2350 5425 2350 
L 4950 2350 
Q 4625 1075 4287 462 
Q 3950 -150 3325 -700 
z
M 1000 4425 
Q 1000 4750 975 5050 
L 1475 5050 
Q 1425 4725 1425 4300 
L 1425 3800 
Q 1625 3800 1925 3825 
L 1925 3400 
Q 1600 3425 1425 3425 
L 1425 2650 
Q 1550 2725 1700 2825 
Q 1900 2350 2075 1875 
Q 1850 1825 1700 1700 
Q 1600 2050 1425 2450 
L 1425 300 
Q 1425 -125 1450 -575 
L 975 -575 
Q 1000 -50 1000 300 
L 1000 2025 
Q 825 1450 550 950 
Q 450 1150 175 1350 
Q 500 1825 662 2275 
Q 825 2725 950 3425 
Q 500 3425 350 3400 
L 350 3825 
Q 550 3800 1000 3800 
L 1000 4425 
z
M 5300 1725 
Q 5275 1050 5275 225 
Q 5275 -50 5412 -75 
Q 5550 -100 5625 -87 
Q 5700 -75 5737 37 
Q 5775 150 5775 475 
Q 6000 350 6250 300 
Q 6150 -225 6050 -350 
Q 5950 -475 5650 -475 
L 5350 -475 
Q 4800 -450 4850 50 
Q 4850 925 4850 1725 
L 5300 1725 
z
M 3125 2575 
L 3125 3275 
L 2550 3275 
L 2550 2575 
L 3125 2575 
z
M 3125 3650 
L 3125 4325 
L 2550 4325 
L 2550 3650 
L 3125 3650 
z
" transform="scale(0.015625)"/>
       <path id="SimHei-7387" d="M 3325 5150 
Q 3425 4900 3550 4525 
L 4800 4525 
Q 5250 4525 5800 4550 
L 5800 4125 
Q 5250 4175 4775 4175 
L 2800 4175 
Q 2975 4050 3300 3900 
Q 3075 3750 2875 3537 
Q 2675 3325 2475 3125 
L 3275 3125 
Q 3575 3425 3775 3775 
Q 4000 3600 4275 3425 
Q 3950 3250 3600 2875 
Q 3250 2500 2625 2000 
L 3850 2100 
Q 3725 2250 3600 2425 
Q 3750 2475 4000 2650 
Q 4250 2350 4700 1700 
Q 4475 1625 4225 1450 
Q 4175 1600 4025 1775 
Q 3700 1750 3425 1750 
L 3425 1050 
L 5150 1050 
Q 5675 1050 6100 1075 
L 6100 650 
Q 5700 675 5125 675 
L 3425 675 
L 3425 175 
Q 3425 -300 3450 -625 
L 2900 -625 
Q 2925 -300 2925 175 
L 2925 675 
L 1325 675 
Q 825 675 325 650 
L 325 1075 
Q 825 1050 1350 1050 
L 2925 1050 
L 2925 1700 
Q 2700 1675 2475 1637 
Q 2250 1600 2025 1525 
Q 1950 1775 1850 2000 
Q 2075 2025 2325 2200 
Q 2575 2375 2975 2800 
Q 2300 2725 2025 2625 
Q 1975 2875 1850 3175 
Q 2075 3175 2325 3487 
Q 2575 3800 2750 4175 
L 1700 4175 
Q 1150 4175 650 4125 
L 650 4550 
Q 1150 4525 1550 4525 
L 2975 4525 
Q 2900 4825 2800 5025 
Q 3025 5075 3325 5150 
z
M 1625 2575 
Q 1725 2400 1825 2200 
Q 1575 2050 1325 1862 
Q 1075 1675 800 1425 
Q 625 1675 475 1875 
Q 800 2025 1100 2212 
Q 1400 2400 1625 2575 
z
M 4850 2650 
Q 5125 2475 5337 2337 
Q 5550 2200 5875 1950 
Q 5675 1800 5500 1600 
Q 5300 1775 5062 1975 
Q 4825 2175 4575 2325 
Q 4725 2475 4850 2650 
z
M 5725 3525 
Q 5550 3450 5300 3262 
Q 5050 3075 4800 2825 
Q 4625 3050 4475 3175 
Q 4700 3325 4875 3487 
Q 5050 3650 5300 3925 
Q 5525 3700 5725 3525 
z
M 1050 3850 
Q 1425 3600 1775 3275 
Q 1575 3100 1425 2925 
Q 1075 3300 675 3525 
Q 875 3700 1050 3850 
z
" transform="scale(0.015625)"/>
      </defs>
      <use xlink:href="#SimHei-6982"/>
      <use xlink:href="#SimHei-7387" x="100"/>
     </g>
    </g>
   </g>
   <g id="patch_37">
    <path d="M 86.904 366.5376 
L 86.904 49.4208 
" style="fill: none; stroke: #000000; stroke-width: 0.8; stroke-linejoin: miter; stroke-linecap: square"/>
   </g>
   <g id="patch_38">
    <path d="M 625.7088 366.5376 
L 625.7088 49.4208 
" style="fill: none; stroke: #000000; stroke-width: 0.8; stroke-linejoin: miter; stroke-linecap: square"/>
   </g>
   <g id="patch_39">
    <path d="M 86.904 366.5376 
L 625.7088 366.5376 
" style="fill: none; stroke: #000000; stroke-width: 0.8; stroke-linejoin: miter; stroke-linecap: square"/>
   </g>
   <g id="patch_40">
    <path d="M 86.904 49.4208 
L 625.7088 49.4208 
" style="fill: none; stroke: #000000; stroke-width: 0.8; stroke-linejoin: miter; stroke-linecap: square"/>
   </g>
   <g id="text_26">
    <!-- 各样本后验概率 -->
    <g transform="translate(314.3064 43.4208)scale(0.12 -0.12)">
     <defs>
      <path id="SimHei-5404" d="M 5100 4425 
Q 4850 4000 4525 3600 
Q 4200 3200 3675 2750 
Q 4050 2500 4750 2325 
Q 5450 2150 6050 2125 
Q 5825 1825 5775 1600 
Q 5050 1750 4412 1962 
Q 3775 2175 3300 2475 
Q 2750 2150 2000 1875 
Q 1250 1600 550 1425 
Q 475 1625 275 1850 
Q 900 1950 1662 2200 
Q 2425 2450 2950 2750 
Q 2525 3150 2100 3900 
Q 1900 3575 1675 3300 
Q 1450 3025 1250 2800 
Q 1050 3000 850 3100 
Q 1200 3400 1587 3950 
Q 1975 4500 2175 5225 
Q 2450 5075 2725 5000 
Q 2600 4850 2375 4425 
L 5100 4425 
z
M 4975 1675 
Q 4950 1125 4950 400 
Q 4950 -325 4975 -575 
L 4475 -575 
L 4475 -225 
L 2050 -225 
L 2050 -625 
L 1550 -625 
Q 1575 -275 1575 400 
Q 1575 1075 1550 1675 
L 4975 1675 
z
M 4475 200 
L 4475 1250 
L 2050 1250 
L 2050 200 
L 4475 200 
z
M 3325 3000 
Q 3875 3450 4300 4025 
L 2500 4025 
Q 2975 3275 3325 3000 
z
" transform="scale(0.015625)"/>
      <path id="SimHei-540e" d="M 5475 2150 
Q 5450 1750 5450 775 
Q 5450 -175 5500 -550 
L 4975 -550 
L 4975 -25 
L 2525 -25 
L 2525 -600 
L 2025 -600 
Q 2050 -175 2050 775 
Q 2050 1750 2025 2150 
L 5475 2150 
z
M 5175 5075 
Q 5300 4800 5525 4525 
Q 4950 4475 3750 4337 
Q 2550 4200 1575 4175 
L 1575 3375 
L 5200 3375 
Q 5550 3375 5975 3400 
L 5975 2900 
Q 5575 2925 5200 2925 
L 1575 2925 
Q 1550 2425 1487 1875 
Q 1425 1325 1250 712 
Q 1075 100 800 -325 
Q 650 -200 225 -50 
Q 625 325 825 1062 
Q 1025 1800 1050 2825 
Q 1075 3850 1075 4575 
Q 2300 4600 3625 4775 
Q 4950 4950 5175 5075 
z
M 4975 375 
L 4975 1725 
L 2525 1725 
L 2525 375 
L 4975 375 
z
" transform="scale(0.015625)"/>
      <path id="SimHei-9a8c" d="M 2300 4725 
Q 2250 4500 2225 4075 
L 2050 2125 
L 2525 2125 
Q 2500 1925 2475 1450 
L 2375 75 
Q 2375 -450 2075 -525 
Q 1775 -600 1250 -675 
Q 1175 -325 1050 -100 
Q 1575 -100 1737 -87 
Q 1900 -75 1950 150 
L 2025 1700 
L 550 1700 
Q 575 2175 587 2737 
Q 600 3300 600 3800 
L 1100 3800 
Q 1050 3525 1025 3087 
Q 1000 2650 1000 2125 
L 1625 2125 
L 1800 4325 
L 1125 4325 
Q 725 4325 350 4300 
L 350 4750 
Q 725 4725 1125 4725 
L 2300 4725 
z
M 4325 4875 
Q 4725 4125 5150 3775 
Q 5575 3425 6150 3225 
Q 5925 3025 5800 2725 
Q 5450 2925 5125 3200 
L 5125 2775 
Q 4800 2800 4200 2800 
Q 3600 2800 3225 2775 
L 3225 3175 
Q 3075 2975 2800 2650 
Q 2575 2875 2325 3000 
Q 2725 3275 2937 3550 
Q 3150 3825 3312 4125 
Q 3475 4425 3587 4675 
Q 3700 4925 3775 5225 
Q 4100 5150 4450 5075 
L 4325 4875 
z
M 5600 2150 
Q 5475 2000 5400 1737 
Q 5325 1475 5162 912 
Q 5000 350 4900 25 
L 5250 25 
Q 5425 25 5800 50 
L 5800 -400 
Q 5475 -375 5250 -375 
L 3325 -375 
Q 2875 -375 2675 -400 
L 2675 50 
Q 2975 25 3350 25 
L 4475 25 
Q 4675 575 4800 1150 
L 5050 2300 
Q 5250 2225 5600 2150 
z
M 5100 3225 
Q 4800 3450 4550 3775 
Q 4300 4100 4050 4600 
Q 3850 4200 3687 3912 
Q 3525 3625 3250 3225 
L 5100 3225 
z
M 3250 2175 
Q 3350 1825 3462 1375 
Q 3575 925 3675 550 
Q 3450 525 3250 425 
Q 3175 900 3087 1225 
Q 3000 1550 2850 2050 
Q 3050 2125 3250 2175 
z
M 1775 1125 
Q 1750 950 1725 700 
Q 1350 625 1112 575 
Q 875 525 375 375 
Q 300 650 200 925 
Q 550 950 925 1000 
Q 1300 1050 1775 1125 
z
M 4300 1650 
Q 4350 1325 4425 825 
L 4025 725 
Q 3925 1275 3875 1562 
Q 3825 1850 3750 2225 
Q 3975 2275 4200 2300 
L 4300 1650 
z
" transform="scale(0.015625)"/>
     </defs>
     <use xlink:href="#SimHei-5404"/>
     <use xlink:href="#SimHei-6837" x="100"/>
     <use xlink:href="#SimHei-672c" x="200"/>
     <use xlink:href="#SimHei-540e" x="300"/>
     <use xlink:href="#SimHei-9a8c" x="400"/>
     <use xlink:href="#SimHei-6982" x="500"/>
     <use xlink:href="#SimHei-7387" x="600"/>
    </g>
   </g>
   <g id="legend_1">
    <g id="patch_41">
     <path d="M 330.3064 85.584862 
L 382.3064 85.584862 
Q 384.3064 85.584862 384.3064 83.584862 
L 384.3064 56.4208 
Q 384.3064 54.4208 382.3064 54.4208 
L 330.3064 54.4208 
Q 328.3064 54.4208 328.3064 56.4208 
L 328.3064 83.584862 
Q 328.3064 85.584862 330.3064 85.584862 
z
" style="fill: #ffffff; opacity: 0.8; stroke: #cccccc; stroke-linejoin: miter"/>
    </g>
    <g id="patch_42">
     <path d="M 332.3064 66.350487 
L 352.3064 66.350487 
L 352.3064 59.350487 
L 332.3064 59.350487 
z
" style="fill: #1f77b4"/>
    </g>
    <g id="text_27">
     <!-- 好瓜 -->
     <g transform="translate(360.3064 66.350487)scale(0.1 -0.1)">
      <defs>
       <path id="SimHei-597d" d="M 2025 5050 
Q 1875 4775 1800 4437 
Q 1725 4100 1650 3775 
L 2900 3775 
Q 2775 3025 2625 2425 
Q 2475 1825 2150 1175 
Q 2550 825 3075 325 
Q 2850 150 2675 -50 
Q 2300 425 1900 775 
Q 1575 375 1250 62 
Q 925 -250 575 -525 
Q 475 -350 200 -150 
Q 575 75 912 362 
Q 1250 650 1550 1075 
Q 1100 1425 575 1750 
Q 900 2500 1100 3375 
Q 700 3375 400 3350 
L 400 3800 
Q 700 3775 1200 3775 
Q 1350 4375 1450 5200 
Q 1700 5125 2025 5050 
z
M 5900 4600 
L 5900 4150 
Q 5650 3950 5350 3712 
Q 5050 3475 4725 3200 
L 4725 2425 
L 5400 2425 
Q 5725 2425 6125 2450 
L 6125 1975 
Q 5725 2000 5400 2000 
L 4725 2000 
L 4725 200 
Q 4725 -275 4437 -400 
Q 4150 -525 3650 -600 
Q 3575 -325 3425 -25 
Q 3975 -25 4112 37 
Q 4250 100 4250 400 
L 4250 2000 
L 3875 2000 
Q 3350 2000 2850 1975 
L 2850 2450 
Q 3350 2425 3800 2425 
L 4250 2425 
Q 4250 2800 4237 3012 
Q 4225 3225 4175 3350 
Q 4400 3500 4700 3737 
Q 5000 3975 5225 4200 
L 3725 4200 
Q 3475 4200 3050 4175 
L 3050 4625 
Q 3475 4600 3725 4600 
L 5900 4600 
z
M 1125 1925 
Q 1500 1675 1775 1475 
Q 1950 1775 2100 2275 
Q 2250 2775 2350 3375 
L 1575 3375 
Q 1350 2550 1125 1925 
z
" transform="scale(0.015625)"/>
       <path id="SimHei-74dc" d="M 3350 975 
Q 3600 1050 3800 1150 
Q 3900 925 4062 550 
Q 4225 175 4425 -250 
Q 4125 -350 3975 -475 
Q 3850 -175 3750 50 
Q 3325 -25 3087 -125 
Q 2850 -225 2425 -475 
Q 2275 -175 2150 0 
Q 2350 125 2412 462 
Q 2475 800 2525 1337 
Q 2575 1875 2587 2575 
Q 2600 3275 2600 4100 
Q 1900 4075 1625 4050 
Q 1625 3375 1600 2762 
Q 1575 2150 1487 1550 
Q 1400 950 1225 400 
Q 1050 -150 775 -675 
Q 500 -500 225 -375 
Q 625 75 825 787 
Q 1025 1500 1075 2225 
Q 1125 2950 1112 3575 
Q 1100 4200 1075 4475 
Q 1550 4475 2025 4500 
Q 2500 4525 2950 4587 
Q 3400 4650 3937 4762 
Q 4475 4875 4950 5075 
Q 5150 4675 5325 4550 
Q 5275 4575 5000 4512 
Q 4725 4450 4400 4375 
Q 4425 3525 4500 2950 
Q 4575 2375 4775 1800 
Q 4975 1225 5337 725 
Q 5700 225 6200 -100 
Q 5850 -350 5725 -575 
Q 5400 -300 5087 100 
Q 4775 500 4525 1087 
Q 4275 1675 4125 2462 
Q 3975 3250 3975 4300 
Q 3475 4200 3050 4150 
Q 3025 2675 3012 1975 
Q 3000 1275 2850 225 
Q 3175 300 3600 425 
L 3350 975 
z
" transform="scale(0.015625)"/>
      </defs>
      <use xlink:href="#SimHei-597d"/>
      <use xlink:href="#SimHei-74dc" x="100"/>
     </g>
    </g>
    <g id="patch_43">
     <path d="M 332.3064 80.334862 
L 352.3064 80.334862 
L 352.3064 73.334862 
L 332.3064 73.334862 
z
" style="fill: #ff7f0e"/>
    </g>
    <g id="text_28">
     <!-- 坏瓜 -->
     <g transform="translate(360.3064 80.334862)scale(0.1 -0.1)">
      <defs>
       <path id="SimHei-574f" d="M 5075 4600 
Q 5475 4600 6050 4625 
L 6050 4150 
Q 5500 4175 5075 4175 
L 4600 4175 
Q 4375 3450 4400 3350 
L 4400 250 
Q 4400 -225 4425 -650 
L 3900 -650 
Q 3925 -250 3925 150 
L 3925 2325 
Q 3375 1250 2450 350 
Q 2350 500 2050 700 
Q 2525 1050 2837 1450 
Q 3150 1850 3450 2412 
Q 3750 2975 3862 3350 
Q 3975 3725 4075 4175 
L 3375 4175 
Q 2975 4175 2400 4150 
L 2400 4625 
Q 2975 4600 3375 4600 
L 5075 4600 
z
M 1175 3500 
L 1175 4225 
Q 1175 4675 1150 5050 
L 1675 5050 
Q 1650 4675 1650 4225 
L 1650 3500 
L 1825 3500 
Q 2125 3500 2500 3525 
L 2500 3050 
Q 2125 3075 1825 3075 
L 1650 3075 
L 1650 1425 
Q 1825 1475 2425 1775 
Q 2450 1450 2500 1275 
Q 2050 1125 1462 862 
Q 875 600 475 350 
Q 375 675 225 950 
Q 425 975 587 1037 
Q 750 1100 1175 1275 
L 1175 3075 
L 1075 3075 
Q 725 3075 325 3050 
L 325 3525 
Q 725 3500 1050 3500 
L 1175 3500 
z
M 5000 2975 
Q 5225 2650 5462 2300 
Q 5700 1950 6150 1200 
Q 5925 1075 5675 875 
Q 5325 1550 5100 1925 
Q 4875 2300 4600 2675 
Q 4750 2750 5000 2975 
z
" transform="scale(0.015625)"/>
      </defs>
      <use xlink:href="#SimHei-574f"/>
      <use xlink:href="#SimHei-74dc" x="100"/>
     </g>
    </g>
   </g>
  </g>
 </g>
 <defs>
  <clipPath id="p6682a2aa79">
   <rect x="86.904" y="49.4208" width="538.8048" height="317.1168"/>
  </clipPath>
 </defs>
</svg>
