<?xml version="1.0" encoding="utf-8" standalone="no"?>
<!DOCTYPE svg PUBLIC "-//W3C//DTD SVG 1.1//EN"
  "http://www.w3.org/Graphics/SVG/1.1/DTD/svg11.dtd">
<svg xmlns:xlink="http://www.w3.org/1999/xlink" width="576pt" height="432pt" viewBox="0 0 576 432" xmlns="http://www.w3.org/2000/svg" version="1.1">
 <metadata>
  <rdf:RDF xmlns:dc="http://purl.org/dc/elements/1.1/" xmlns:cc="http://creativecommons.org/ns#" xmlns:rdf="http://www.w3.org/1999/02/22-rdf-syntax-ns#">
   <cc:Work>
    <dc:type rdf:resource="http://purl.org/dc/dcmitype/StillImage"/>
    <dc:date>2024-06-04T15:33:32.580153</dc:date>
    <dc:format>image/svg+xml</dc:format>
    <dc:creator>
     <cc:Agent>
      <dc:title>Matplotlib v3.5.1, https://matplotlib.org/</dc:title>
     </cc:Agent>
    </dc:creator>
   </cc:Work>
  </rdf:RDF>
 </metadata>
 <defs>
  <style type="text/css">*{stroke-linejoin: round; stroke-linecap: butt}</style>
 </defs>
 <g id="figure_1">
  <g id="patch_1">
   <path d="M 0 432 
L 576 432 
L 576 0 
L 0 0 
z
" style="fill: #ffffff"/>
  </g>
  <g id="axes_1">
   <g id="patch_2">
    <path d="M 72 384.48 
L 518.4 384.48 
L 518.4 51.84 
L 72 51.84 
z
" style="fill: #ffffff"/>
   </g>
   <g id="PathCollection_1">
    <defs>
     <path id="m9c06d59ee3" d="M 0 3 
C 0.795609 3 1.55874 2.683901 2.12132 2.12132 
C 2.683901 1.55874 3 0.795609 3 0 
C 3 -0.795609 2.683901 -1.55874 2.12132 -2.12132 
C 1.55874 -2.683901 0.795609 -3 0 -3 
C -0.795609 -3 -1.55874 -2.683901 -2.12132 -2.12132 
C -2.683901 -1.55874 -3 -0.795609 -3 0 
C -3 0.795609 -2.683901 1.55874 -2.12132 2.12132 
C -1.55874 2.683901 -0.795609 3 0 3 
z
" style="stroke: #1f77b4"/>
    </defs>
    <g clip-path="url(#p3af33a5c3b)">
     <use xlink:href="#m9c06d59ee3" x="181.708475" y="147.464698" style="fill: #1f77b4; stroke: #1f77b4"/>
     <use xlink:href="#m9c06d59ee3" x="275.711556" y="186.702282" style="fill: #1f77b4; stroke: #1f77b4"/>
     <use xlink:href="#m9c06d59ee3" x="271.890293" y="102.138523" style="fill: #1f77b4; stroke: #1f77b4"/>
     <use xlink:href="#m9c06d59ee3" x="307.810169" y="148.141208" style="fill: #1f77b4; stroke: #1f77b4"/>
     <use xlink:href="#m9c06d59ee3" x="313.159938" y="78.460671" style="fill: #1f77b4; stroke: #1f77b4"/>
     <use xlink:href="#m9c06d59ee3" x="268.069029" y="143.405638" style="fill: #1f77b4; stroke: #1f77b4"/>
     <use xlink:href="#m9c06d59ee3" x="247.434206" y="87.255302" style="fill: #1f77b4; stroke: #1f77b4"/>
    </g>
   </g>
   <g id="PathCollection_2">
    <defs>
     <path id="m0f004b8ac5" d="M 0 3 
C 0.795609 3 1.55874 2.683901 2.12132 2.12132 
C 2.683901 1.55874 3 0.795609 3 0 
C 3 -0.795609 2.683901 -1.55874 2.12132 -2.12132 
C 1.55874 -2.683901 0.795609 -3 0 -3 
C -0.795609 -3 -1.55874 -2.683901 -2.12132 -2.12132 
C -2.683901 -1.55874 -3 -0.795609 -3 0 
C -3 0.795609 -2.683901 1.55874 -2.12132 2.12132 
C -1.55874 2.683901 -0.795609 3 0 3 
z
" style="stroke: #ff7f0e"/>
    </defs>
    <g clip-path="url(#p3af33a5c3b)">
     <use xlink:href="#m0f004b8ac5" x="439.261633" y="86.578792" style="fill: #ff7f0e; stroke: #ff7f0e"/>
     <use xlink:href="#m0f004b8ac5" x="498.109091" y="143.405638" style="fill: #ff7f0e; stroke: #ff7f0e"/>
     <use xlink:href="#m0f004b8ac5" x="371.243143" y="182.643221" style="fill: #ff7f0e; stroke: #ff7f0e"/>
     <use xlink:href="#m0f004b8ac5" x="452.253929" y="163.70094" style="fill: #ff7f0e; stroke: #ff7f0e"/>
     <use xlink:href="#m0f004b8ac5" x="480.531279" y="66.96" style="fill: #ff7f0e; stroke: #ff7f0e"/>
     <use xlink:href="#m0f004b8ac5" x="460.660709" y="96.726443" style="fill: #ff7f0e; stroke: #ff7f0e"/>
    </g>
   </g>
   <g id="PathCollection_3">
    <defs>
     <path id="mc457200f9a" d="M 0 3 
C 0.795609 3 1.55874 2.683901 2.12132 2.12132 
C 2.683901 1.55874 3 0.795609 3 0 
C 3 -0.795609 2.683901 -1.55874 2.12132 -2.12132 
C 1.55874 -2.683901 0.795609 -3 0 -3 
C -0.795609 -3 -1.55874 -2.683901 -2.12132 -2.12132 
C -2.683901 -1.55874 -3 -0.795609 -3 0 
C -3 0.795609 -2.683901 1.55874 -2.12132 2.12132 
C -1.55874 2.683901 -0.795609 3 0 3 
z
" style="stroke: #2ca02c"/>
    </defs>
    <g clip-path="url(#p3af33a5c3b)">
     <use xlink:href="#mc457200f9a" x="214.571341" y="237.440537" style="fill: #2ca02c; stroke: #2ca02c"/>
     <use xlink:href="#mc457200f9a" x="274.183051" y="296.973423" style="fill: #2ca02c; stroke: #2ca02c"/>
     <use xlink:href="#mc457200f9a" x="240.555932" y="255.029799" style="fill: #2ca02c; stroke: #2ca02c"/>
     <use xlink:href="#mc457200f9a" x="92.290909" y="217.145235" style="fill: #2ca02c; stroke: #2ca02c"/>
     <use xlink:href="#mc457200f9a" x="93.819414" y="359.212349" style="fill: #2ca02c; stroke: #2ca02c"/>
     <use xlink:href="#mc457200f9a" x="168.716179" y="330.798926" style="fill: #2ca02c; stroke: #2ca02c"/>
     <use xlink:href="#mc457200f9a" x="180.944222" y="270.58953" style="fill: #2ca02c; stroke: #2ca02c"/>
     <use xlink:href="#mc457200f9a" x="165.659168" y="234.734497" style="fill: #2ca02c; stroke: #2ca02c"/>
     <use xlink:href="#mc457200f9a" x="122.096764" y="223.910336" style="fill: #2ca02c; stroke: #2ca02c"/>
    </g>
   </g>
   <g id="PathCollection_4">
    <defs>
     <path id="ma7c3e86898" d="M 0 3 
C 0.795609 3 1.55874 2.683901 2.12132 2.12132 
C 2.683901 1.55874 3 0.795609 3 0 
C 3 -0.795609 2.683901 -1.55874 2.12132 -2.12132 
C 1.55874 -2.683901 0.795609 -3 0 -3 
C -0.795609 -3 -1.55874 -2.683901 -2.12132 -2.12132 
C -2.683901 -1.55874 -3 -0.795609 -3 0 
C -3 0.795609 -2.683901 1.55874 -2.12132 2.12132 
C -1.55874 2.683901 -0.795609 3 0 3 
z
" style="stroke: #d62728"/>
    </defs>
    <g clip-path="url(#p3af33a5c3b)">
     <use xlink:href="#ma7c3e86898" x="391.113713" y="219.174765" style="fill: #d62728; stroke: #d62728"/>
     <use xlink:href="#ma7c3e86898" x="331.502003" y="252.323758" style="fill: #d62728; stroke: #d62728"/>
     <use xlink:href="#ma7c3e86898" x="415.5698" y="336.211007" style="fill: #d62728; stroke: #d62728"/>
     <use xlink:href="#ma7c3e86898" x="394.934977" y="288.855302" style="fill: #d62728; stroke: #d62728"/>
     <use xlink:href="#ma7c3e86898" x="408.691525" y="263.82443" style="fill: #d62728; stroke: #d62728"/>
     <use xlink:href="#ma7c3e86898" x="359.779353" y="369.36" style="fill: #d62728; stroke: #d62728"/>
     <use xlink:href="#ma7c3e86898" x="456.075193" y="328.092886" style="fill: #d62728; stroke: #d62728"/>
     <use xlink:href="#ma7c3e86898" x="478.238521" y="240.823087" style="fill: #d62728; stroke: #d62728"/>
    </g>
   </g>
   <g id="PathCollection_5">
    <defs>
     <path id="m72acc6e06c" d="M -6.123724 0 
L 6.123724 0 
M 0 6.123724 
L 0 -6.123724 
" style="stroke: #ff0000; stroke-width: 1.5"/>
    </defs>
    <g clip-path="url(#p3af33a5c3b)">
     <use xlink:href="#m72acc6e06c" x="266.540524" y="127.652617" style="fill: #ff0000; stroke: #ff0000; stroke-width: 1.5"/>
     <use xlink:href="#m72acc6e06c" x="450.343297" y="123.335839" style="fill: #ff0000; stroke: #ff0000; stroke-width: 1.5"/>
     <use xlink:href="#m72acc6e06c" x="172.537442" y="269.537181" style="fill: #ff0000; stroke: #ff0000; stroke-width: 1.5"/>
     <use xlink:href="#m72acc6e06c" x="404.488136" y="287.333154" style="fill: #ff0000; stroke: #ff0000; stroke-width: 1.5"/>
    </g>
   </g>
   <g id="matplotlib.axis_1">
    <g id="xtick_1">
     <g id="line2d_1">
      <defs>
       <path id="md7ea761730" d="M 0 0 
L 0 3.5 
" style="stroke: #000000; stroke-width: 0.8"/>
      </defs>
      <g>
       <use xlink:href="#md7ea761730" x="135.853313" y="384.48" style="stroke: #000000; stroke-width: 0.8"/>
      </g>
     </g>
     <g id="text_1">
      <!-- 0.3 -->
      <g transform="translate(128.353313 398.355)scale(0.1 -0.1)">
       <defs>
        <path id="SimHei-30" d="M 225 2537 
Q 250 3200 412 3587 
Q 575 3975 875 4225 
Q 1175 4475 1612 4475 
Q 2050 4475 2375 4112 
Q 2700 3750 2800 3200 
Q 2900 2650 2862 1937 
Q 2825 1225 2612 775 
Q 2400 325 1975 150 
Q 1550 -25 1125 187 
Q 700 400 525 750 
Q 350 1100 275 1487 
Q 200 1875 225 2537 
z
M 750 2687 
Q 675 2000 800 1462 
Q 925 925 1212 700 
Q 1500 475 1800 612 
Q 2100 750 2237 1162 
Q 2375 1575 2375 2062 
Q 2375 2550 2337 2950 
Q 2300 3350 2112 3675 
Q 1925 4000 1612 4012 
Q 1300 4025 1062 3700 
Q 825 3375 750 2687 
z
" transform="scale(0.015625)"/>
        <path id="SimHei-2e" d="M 1075 125 
L 500 125 
L 500 675 
L 1075 675 
L 1075 125 
z
" transform="scale(0.015625)"/>
        <path id="SimHei-33" d="M 250 1225 
L 700 1300 
Q 800 975 1025 762 
Q 1250 550 1587 562 
Q 1925 575 2125 837 
Q 2325 1100 2300 1437 
Q 2275 1775 2037 1962 
Q 1800 2150 1275 2225 
L 1275 2550 
Q 1800 2600 2037 2825 
Q 2275 3050 2250 3412 
Q 2225 3775 1925 3937 
Q 1625 4100 1287 3975 
Q 950 3850 750 3275 
L 300 3350 
Q 450 3800 712 4100 
Q 975 4400 1425 4450 
Q 1875 4500 2212 4337 
Q 2550 4175 2687 3837 
Q 2825 3500 2725 3100 
Q 2625 2700 2150 2400 
Q 2500 2250 2687 1950 
Q 2875 1650 2812 1162 
Q 2750 675 2375 375 
Q 2000 75 1525 87 
Q 1050 100 700 387 
Q 350 675 250 1225 
z
" transform="scale(0.015625)"/>
       </defs>
       <use xlink:href="#SimHei-30"/>
       <use xlink:href="#SimHei-2e" x="50"/>
       <use xlink:href="#SimHei-33" x="100"/>
      </g>
     </g>
    </g>
    <g id="xtick_2">
     <g id="line2d_2">
      <g>
       <use xlink:href="#md7ea761730" x="212.278582" y="384.48" style="stroke: #000000; stroke-width: 0.8"/>
      </g>
     </g>
     <g id="text_2">
      <!-- 0.4 -->
      <g transform="translate(204.778582 398.355)scale(0.1 -0.1)">
       <defs>
        <path id="SimHei-34" d="M 2000 1100 
L 75 1100 
L 75 1525 
L 2100 4450 
L 2475 4450 
L 2475 1525 
L 3075 1525 
L 3075 1100 
L 2475 1100 
L 2475 150 
L 2000 150 
L 2000 1100 
z
M 2000 1525 
L 2000 3500 
L 600 1525 
L 2000 1525 
z
" transform="scale(0.015625)"/>
       </defs>
       <use xlink:href="#SimHei-30"/>
       <use xlink:href="#SimHei-2e" x="50"/>
       <use xlink:href="#SimHei-34" x="100"/>
      </g>
     </g>
    </g>
    <g id="xtick_3">
     <g id="line2d_3">
      <g>
       <use xlink:href="#md7ea761730" x="288.703852" y="384.48" style="stroke: #000000; stroke-width: 0.8"/>
      </g>
     </g>
     <g id="text_3">
      <!-- 0.5 -->
      <g transform="translate(281.203852 398.355)scale(0.1 -0.1)">
       <defs>
        <path id="SimHei-35" d="M 550 1325 
Q 725 650 1150 575 
Q 1575 500 1837 662 
Q 2100 825 2212 1087 
Q 2325 1350 2312 1675 
Q 2300 2000 2137 2225 
Q 1975 2450 1725 2525 
Q 1475 2600 1162 2525 
Q 850 2450 650 2175 
L 225 2225 
Q 275 2375 700 4375 
L 2675 4375 
L 2675 3925 
L 1075 3925 
Q 950 3250 825 2850 
Q 1200 3025 1525 3012 
Q 1850 3000 2150 2862 
Q 2450 2725 2587 2487 
Q 2725 2250 2787 2012 
Q 2850 1775 2837 1500 
Q 2825 1225 2725 937 
Q 2625 650 2425 462 
Q 2225 275 1937 162 
Q 1650 50 1275 75 
Q 900 100 562 350 
Q 225 600 100 1200 
L 550 1325 
z
" transform="scale(0.015625)"/>
       </defs>
       <use xlink:href="#SimHei-30"/>
       <use xlink:href="#SimHei-2e" x="50"/>
       <use xlink:href="#SimHei-35" x="100"/>
      </g>
     </g>
    </g>
    <g id="xtick_4">
     <g id="line2d_4">
      <g>
       <use xlink:href="#md7ea761730" x="365.129122" y="384.48" style="stroke: #000000; stroke-width: 0.8"/>
      </g>
     </g>
     <g id="text_4">
      <!-- 0.6 -->
      <g transform="translate(357.629122 398.355)scale(0.1 -0.1)">
       <defs>
        <path id="SimHei-36" d="M 250 1612 
Q 275 1975 387 2225 
Q 500 2475 725 2850 
L 1750 4450 
L 2325 4450 
L 1275 2800 
Q 1950 2975 2350 2750 
Q 2750 2525 2887 2237 
Q 3025 1950 3037 1612 
Q 3050 1275 2937 950 
Q 2825 625 2537 362 
Q 2250 100 1737 75 
Q 1225 50 862 262 
Q 500 475 362 862 
Q 225 1250 250 1612 
z
M 1025 787 
Q 1250 550 1625 525 
Q 2000 500 2250 775 
Q 2500 1050 2500 1575 
Q 2500 2100 2187 2300 
Q 1875 2500 1487 2450 
Q 1100 2400 925 2075 
Q 750 1750 775 1387 
Q 800 1025 1025 787 
z
" transform="scale(0.015625)"/>
       </defs>
       <use xlink:href="#SimHei-30"/>
       <use xlink:href="#SimHei-2e" x="50"/>
       <use xlink:href="#SimHei-36" x="100"/>
      </g>
     </g>
    </g>
    <g id="xtick_5">
     <g id="line2d_5">
      <g>
       <use xlink:href="#md7ea761730" x="441.554391" y="384.48" style="stroke: #000000; stroke-width: 0.8"/>
      </g>
     </g>
     <g id="text_5">
      <!-- 0.7 -->
      <g transform="translate(434.054391 398.355)scale(0.1 -0.1)">
       <defs>
        <path id="SimHei-37" d="M 850 150 
Q 1300 2050 2425 3925 
L 275 3925 
L 275 4375 
L 2950 4375 
L 2950 3950 
Q 1775 2050 1400 150 
L 850 150 
z
" transform="scale(0.015625)"/>
       </defs>
       <use xlink:href="#SimHei-30"/>
       <use xlink:href="#SimHei-2e" x="50"/>
       <use xlink:href="#SimHei-37" x="100"/>
      </g>
     </g>
    </g>
    <g id="xtick_6">
     <g id="line2d_6">
      <g>
       <use xlink:href="#md7ea761730" x="517.979661" y="384.48" style="stroke: #000000; stroke-width: 0.8"/>
      </g>
     </g>
     <g id="text_6">
      <!-- 0.8 -->
      <g transform="translate(510.479661 398.355)scale(0.1 -0.1)">
       <defs>
        <path id="SimHei-38" d="M 175 1375 
Q 175 1675 325 1962 
Q 475 2250 825 2425 
Q 525 2600 425 2812 
Q 325 3025 312 3300 
Q 300 3575 387 3775 
Q 475 3975 650 4150 
Q 825 4325 1037 4387 
Q 1250 4450 1500 4450 
Q 1750 4450 1950 4400 
Q 2150 4350 2375 4187 
Q 2600 4025 2700 3725 
Q 2800 3425 2687 3025 
Q 2575 2625 2100 2400 
Q 2525 2275 2700 2012 
Q 2875 1750 2875 1375 
Q 2875 1000 2762 775 
Q 2650 550 2512 400 
Q 2375 250 2137 162 
Q 1900 75 1537 75 
Q 1175 75 912 162 
Q 650 250 475 425 
Q 300 600 237 837 
Q 175 1075 175 1375 
z
M 687 1400 
Q 675 1100 787 875 
Q 900 650 1200 587 
Q 1500 525 1825 600 
Q 2150 675 2275 950 
Q 2400 1225 2362 1500 
Q 2325 1775 2050 1962 
Q 1775 2150 1450 2125 
Q 1125 2100 912 1900 
Q 700 1700 687 1400 
z
M 775 3350 
Q 775 3100 950 2875 
Q 1125 2650 1500 2650 
Q 1875 2650 2062 2875 
Q 2250 3100 2237 3412 
Q 2225 3725 2012 3875 
Q 1800 4025 1437 4000 
Q 1075 3975 925 3787 
Q 775 3600 775 3350 
z
" transform="scale(0.015625)"/>
       </defs>
       <use xlink:href="#SimHei-30"/>
       <use xlink:href="#SimHei-2e" x="50"/>
       <use xlink:href="#SimHei-38" x="100"/>
      </g>
     </g>
    </g>
    <g id="text_7">
     <!-- 密度 -->
     <g transform="translate(285.2 411.651875)scale(0.1 -0.1)">
      <defs>
       <path id="SimHei-5bc6" d="M 4825 3350 
Q 4475 3125 3962 2750 
Q 3450 2375 2775 2025 
L 4025 2025 
Q 4550 2025 4550 2600 
Q 4800 2450 5150 2325 
Q 4900 1775 4712 1687 
Q 4525 1600 4200 1600 
L 2875 1600 
Q 2225 1575 2175 1675 
Q 1125 1325 575 1175 
Q 475 1425 250 1675 
Q 850 1725 1262 1850 
Q 1675 1975 2000 2100 
L 2000 2750 
Q 2000 3000 1975 3400 
L 2550 3400 
Q 2525 3025 2525 2775 
L 2525 2350 
Q 2900 2525 3425 2887 
Q 3950 3250 4325 3775 
Q 4475 3625 4825 3350 
z
M 1225 550 
Q 1225 825 1200 1125 
L 1750 1125 
Q 1725 775 1725 525 
L 1725 0 
L 3075 0 
L 3075 700 
Q 3075 950 3025 1375 
L 3600 1375 
Q 3575 1100 3575 675 
L 3575 0 
L 4975 0 
L 4975 625 
Q 4975 875 4950 1200 
L 5500 1200 
Q 5475 900 5475 600 
L 5475 -225 
Q 5475 -425 5500 -700 
L 4975 -700 
L 4975 -400 
L 1200 -400 
Q 1225 -150 1225 75 
L 1225 550 
z
M 5375 3575 
L 5375 4150 
L 1150 4150 
L 1150 3550 
L 600 3550 
Q 625 3700 625 4000 
Q 625 4300 600 4575 
L 2975 4575 
Q 2900 4800 2775 5050 
Q 3000 5125 3325 5225 
Q 3425 5075 3575 4575 
L 5925 4575 
Q 5900 4250 5900 4025 
Q 5900 3825 5925 3575 
L 5375 3575 
z
M 1650 3275 
Q 1500 2850 1225 2250 
Q 900 2350 675 2400 
Q 950 2800 1100 3400 
Q 1350 3325 1650 3275 
z
M 5450 3325 
Q 5775 2925 6100 2450 
Q 5825 2350 5625 2200 
Q 5350 2675 5000 3050 
Q 5200 3175 5450 3325 
z
M 3225 3150 
Q 2875 3600 2575 3825 
Q 2775 3950 2975 4125 
Q 3175 3975 3650 3475 
Q 3450 3300 3225 3150 
z
" transform="scale(0.015625)"/>
       <path id="SimHei-5ea6" d="M 1750 1675 
Q 2450 1650 2875 1650 
L 5200 1650 
Q 4975 1250 4650 850 
Q 4325 450 4025 200 
Q 4350 50 4950 -50 
Q 5550 -150 6100 -150 
Q 5950 -300 5825 -650 
Q 5100 -550 4550 -412 
Q 4000 -275 3625 -100 
Q 3100 -325 2587 -462 
Q 2075 -600 1525 -675 
Q 1450 -475 1225 -250 
Q 1675 -250 2250 -125 
Q 2825 0 3250 200 
Q 2825 550 2400 1275 
L 1750 1250 
L 1750 1675 
z
M 2975 5075 
Q 3250 5150 3475 5250 
Q 3625 4975 3775 4525 
L 4700 4525 
Q 4975 4525 5700 4550 
L 5700 4100 
Q 5000 4125 4650 4125 
L 1375 4125 
Q 1375 3000 1350 2312 
Q 1325 1625 1212 950 
Q 1100 275 725 -525 
Q 500 -375 250 -300 
Q 650 400 762 1075 
Q 875 1750 887 2800 
Q 900 3850 875 4525 
L 3200 4525 
Q 3100 4850 2975 5075 
z
M 2475 3300 
Q 2475 3700 2450 3925 
L 2975 3925 
Q 2950 3725 2950 3300 
L 4300 3300 
Q 4300 3700 4275 3950 
L 4800 3950 
Q 4775 3650 4775 3300 
Q 5325 3300 5725 3325 
L 5725 2900 
Q 5350 2925 4775 2925 
Q 4775 2250 4800 1950 
L 2450 1950 
Q 2475 2350 2475 2925 
Q 2175 2925 1600 2900 
L 1600 3325 
Q 2175 3300 2475 3300 
z
M 4300 2350 
L 4300 2925 
L 2950 2925 
L 2950 2350 
L 4300 2350 
z
M 2875 1275 
Q 3200 775 3650 425 
Q 4025 700 4425 1275 
L 2900 1275 
L 2875 1275 
z
" transform="scale(0.015625)"/>
      </defs>
      <use xlink:href="#SimHei-5bc6"/>
      <use xlink:href="#SimHei-5ea6" x="100"/>
     </g>
    </g>
   </g>
   <g id="matplotlib.axis_2">
    <g id="ytick_1">
     <g id="line2d_7">
      <defs>
       <path id="m6a622d7949" d="M 0 0 
L -3.5 0 
" style="stroke: #000000; stroke-width: 0.8"/>
      </defs>
      <g>
       <use xlink:href="#m6a622d7949" x="72" y="330.122416" style="stroke: #000000; stroke-width: 0.8"/>
      </g>
     </g>
     <g id="text_8">
      <!-- 0.1 -->
      <g transform="translate(50 333.559916)scale(0.1 -0.1)">
       <defs>
        <path id="SimHei-31" d="M 1400 3600 
Q 1075 3275 575 2975 
L 575 3450 
Q 1200 3875 1600 4450 
L 1900 4450 
L 1900 150 
L 1400 150 
L 1400 3600 
z
" transform="scale(0.015625)"/>
       </defs>
       <use xlink:href="#SimHei-30"/>
       <use xlink:href="#SimHei-2e" x="50"/>
       <use xlink:href="#SimHei-31" x="100"/>
      </g>
     </g>
    </g>
    <g id="ytick_2">
     <g id="line2d_8">
      <g>
       <use xlink:href="#m6a622d7949" x="72" y="262.471409" style="stroke: #000000; stroke-width: 0.8"/>
      </g>
     </g>
     <g id="text_9">
      <!-- 0.2 -->
      <g transform="translate(50 265.908909)scale(0.1 -0.1)">
       <defs>
        <path id="SimHei-32" d="M 300 250 
Q 325 625 650 925 
Q 975 1225 1475 1862 
Q 1975 2500 2125 2850 
Q 2275 3200 2237 3450 
Q 2200 3700 2000 3862 
Q 1800 4025 1537 4000 
Q 1275 3975 1037 3800 
Q 800 3625 675 3275 
L 200 3350 
Q 400 3925 712 4187 
Q 1025 4450 1450 4475 
Q 1700 4500 1900 4462 
Q 2100 4425 2312 4287 
Q 2525 4150 2662 3875 
Q 2800 3600 2762 3212 
Q 2725 2825 2375 2287 
Q 2025 1750 1025 600 
L 2825 600 
L 2825 150 
L 300 150 
L 300 250 
z
" transform="scale(0.015625)"/>
       </defs>
       <use xlink:href="#SimHei-30"/>
       <use xlink:href="#SimHei-2e" x="50"/>
       <use xlink:href="#SimHei-32" x="100"/>
      </g>
     </g>
    </g>
    <g id="ytick_3">
     <g id="line2d_9">
      <g>
       <use xlink:href="#m6a622d7949" x="72" y="194.820403" style="stroke: #000000; stroke-width: 0.8"/>
      </g>
     </g>
     <g id="text_10">
      <!-- 0.3 -->
      <g transform="translate(50 198.257903)scale(0.1 -0.1)">
       <use xlink:href="#SimHei-30"/>
       <use xlink:href="#SimHei-2e" x="50"/>
       <use xlink:href="#SimHei-33" x="100"/>
      </g>
     </g>
    </g>
    <g id="ytick_4">
     <g id="line2d_10">
      <g>
       <use xlink:href="#m6a622d7949" x="72" y="127.169396" style="stroke: #000000; stroke-width: 0.8"/>
      </g>
     </g>
     <g id="text_11">
      <!-- 0.4 -->
      <g transform="translate(50 130.606896)scale(0.1 -0.1)">
       <use xlink:href="#SimHei-30"/>
       <use xlink:href="#SimHei-2e" x="50"/>
       <use xlink:href="#SimHei-34" x="100"/>
      </g>
     </g>
    </g>
    <g id="ytick_5">
     <g id="line2d_11">
      <g>
       <use xlink:href="#m6a622d7949" x="72" y="59.518389" style="stroke: #000000; stroke-width: 0.8"/>
      </g>
     </g>
     <g id="text_12">
      <!-- 0.5 -->
      <g transform="translate(50 62.955889)scale(0.1 -0.1)">
       <use xlink:href="#SimHei-30"/>
       <use xlink:href="#SimHei-2e" x="50"/>
       <use xlink:href="#SimHei-35" x="100"/>
      </g>
     </g>
    </g>
    <g id="text_13">
     <!-- 含糖率 -->
     <g transform="translate(44.75 233.16)rotate(-90)scale(0.1 -0.1)">
      <defs>
       <path id="SimHei-542b" d="M 4525 -575 
L 4525 -200 
L 1850 -200 
L 1850 -625 
L 1325 -625 
Q 1350 -275 1350 275 
Q 1350 850 1325 1450 
L 5050 1450 
Q 5025 1175 5025 425 
Q 5025 -300 5050 -575 
L 4525 -575 
z
M 3350 4850 
Q 3625 4525 4325 4062 
Q 5025 3600 6150 3300 
Q 5850 3075 5750 2750 
Q 5050 3025 4337 3462 
Q 3625 3900 3125 4500 
Q 2500 3800 1912 3387 
Q 1325 2975 625 2650 
Q 550 2850 275 3100 
Q 1100 3325 1862 3925 
Q 2625 4525 2975 5275 
Q 3325 5150 3525 5050 
L 3350 4850 
z
M 4525 200 
L 4525 1050 
L 1850 1050 
L 1850 200 
L 4525 200 
z
M 4775 2875 
Q 4525 2600 4200 2200 
Q 3875 1800 3600 1500 
Q 3425 1675 3250 1750 
Q 3525 2025 3875 2500 
L 1975 2500 
Q 1750 2500 1350 2475 
L 1350 2900 
Q 1750 2875 1975 2875 
L 4775 2875 
z
M 3050 3925 
Q 3425 3400 3475 3225 
Q 3375 3200 3050 3025 
Q 2850 3475 2675 3700 
Q 2925 3800 3050 3925 
z
" transform="scale(0.015625)"/>
       <path id="SimHei-7cd6" d="M 4525 5275 
Q 4625 4975 4725 4625 
Q 5675 4625 6075 4650 
L 6075 4225 
Q 5675 4250 4675 4250 
L 3200 4250 
L 3200 2975 
L 4250 2975 
L 4250 3375 
Q 3800 3375 3500 3350 
L 3500 3800 
Q 3800 3775 4250 3775 
L 4250 4100 
L 4675 4100 
L 4675 3775 
L 5725 3775 
Q 5700 3425 5700 2975 
Q 5875 2975 6125 3000 
L 6125 2550 
Q 5875 2575 5700 2575 
Q 5700 2075 5725 1725 
L 4675 1725 
L 4675 1375 
L 4250 1375 
L 4250 1725 
Q 3825 1725 3500 1700 
L 3500 2150 
Q 3825 2125 4250 2125 
L 4250 2575 
L 3200 2575 
Q 3200 1600 3012 875 
Q 2825 150 2225 -625 
Q 2050 -425 1775 -325 
Q 2275 275 2500 862 
Q 2725 1450 2750 2162 
Q 2775 2875 2775 3450 
Q 2775 4050 2750 4625 
L 4200 4625 
Q 4125 4875 3975 5125 
Q 4275 5175 4525 5275 
z
M 1250 4425 
Q 1250 4975 1225 5225 
L 1725 5225 
Q 1700 4875 1700 4425 
L 1700 3125 
Q 2075 3125 2500 3150 
L 2500 2700 
Q 2075 2725 1700 2725 
L 1700 300 
Q 1700 -100 1725 -625 
L 1225 -625 
Q 1250 -100 1250 300 
L 1250 1675 
Q 1025 1125 550 375 
Q 425 625 200 825 
Q 475 1150 762 1712 
Q 1050 2275 1150 2725 
Q 725 2725 300 2700 
L 300 3150 
Q 750 3125 1250 3125 
L 1250 4425 
z
M 5750 1250 
Q 5725 775 5725 350 
Q 5725 -75 5750 -475 
L 5275 -475 
L 5275 -200 
L 3825 -200 
L 3825 -575 
L 3375 -575 
Q 3400 -175 3400 300 
Q 3400 775 3375 1250 
L 5750 1250 
z
M 5275 200 
L 5275 850 
L 3825 850 
L 3825 200 
L 5275 200 
z
M 2650 4525 
Q 2575 4375 2500 4100 
Q 2425 3825 2250 3375 
Q 2050 3450 1825 3500 
Q 2025 4100 2125 4675 
Q 2450 4575 2650 4525 
z
M 675 4625 
Q 900 4075 1025 3575 
Q 850 3500 600 3400 
Q 450 4050 275 4475 
Q 500 4525 675 4625 
z
M 2575 1475 
Q 2275 1350 2100 1250 
Q 1975 1650 1750 2150 
Q 1975 2225 2150 2325 
L 2575 1475 
z
M 5250 2125 
L 5250 2575 
L 4675 2575 
L 4675 2125 
L 5250 2125 
z
M 5250 2975 
L 5250 3375 
L 4675 3375 
L 4675 2975 
L 5250 2975 
z
" transform="scale(0.015625)"/>
       <path id="SimHei-7387" d="M 3325 5150 
Q 3425 4900 3550 4525 
L 4800 4525 
Q 5250 4525 5800 4550 
L 5800 4125 
Q 5250 4175 4775 4175 
L 2800 4175 
Q 2975 4050 3300 3900 
Q 3075 3750 2875 3537 
Q 2675 3325 2475 3125 
L 3275 3125 
Q 3575 3425 3775 3775 
Q 4000 3600 4275 3425 
Q 3950 3250 3600 2875 
Q 3250 2500 2625 2000 
L 3850 2100 
Q 3725 2250 3600 2425 
Q 3750 2475 4000 2650 
Q 4250 2350 4700 1700 
Q 4475 1625 4225 1450 
Q 4175 1600 4025 1775 
Q 3700 1750 3425 1750 
L 3425 1050 
L 5150 1050 
Q 5675 1050 6100 1075 
L 6100 650 
Q 5700 675 5125 675 
L 3425 675 
L 3425 175 
Q 3425 -300 3450 -625 
L 2900 -625 
Q 2925 -300 2925 175 
L 2925 675 
L 1325 675 
Q 825 675 325 650 
L 325 1075 
Q 825 1050 1350 1050 
L 2925 1050 
L 2925 1700 
Q 2700 1675 2475 1637 
Q 2250 1600 2025 1525 
Q 1950 1775 1850 2000 
Q 2075 2025 2325 2200 
Q 2575 2375 2975 2800 
Q 2300 2725 2025 2625 
Q 1975 2875 1850 3175 
Q 2075 3175 2325 3487 
Q 2575 3800 2750 4175 
L 1700 4175 
Q 1150 4175 650 4125 
L 650 4550 
Q 1150 4525 1550 4525 
L 2975 4525 
Q 2900 4825 2800 5025 
Q 3025 5075 3325 5150 
z
M 1625 2575 
Q 1725 2400 1825 2200 
Q 1575 2050 1325 1862 
Q 1075 1675 800 1425 
Q 625 1675 475 1875 
Q 800 2025 1100 2212 
Q 1400 2400 1625 2575 
z
M 4850 2650 
Q 5125 2475 5337 2337 
Q 5550 2200 5875 1950 
Q 5675 1800 5500 1600 
Q 5300 1775 5062 1975 
Q 4825 2175 4575 2325 
Q 4725 2475 4850 2650 
z
M 5725 3525 
Q 5550 3450 5300 3262 
Q 5050 3075 4800 2825 
Q 4625 3050 4475 3175 
Q 4700 3325 4875 3487 
Q 5050 3650 5300 3925 
Q 5525 3700 5725 3525 
z
M 1050 3850 
Q 1425 3600 1775 3275 
Q 1575 3100 1425 2925 
Q 1075 3300 675 3525 
Q 875 3700 1050 3850 
z
" transform="scale(0.015625)"/>
      </defs>
      <use xlink:href="#SimHei-542b"/>
      <use xlink:href="#SimHei-7cd6" x="100"/>
      <use xlink:href="#SimHei-7387" x="200"/>
     </g>
    </g>
   </g>
   <g id="patch_3">
    <path d="M 72 384.48 
L 72 51.84 
" style="fill: none; stroke: #000000; stroke-width: 0.8; stroke-linejoin: miter; stroke-linecap: square"/>
   </g>
   <g id="patch_4">
    <path d="M 518.4 384.48 
L 518.4 51.84 
" style="fill: none; stroke: #000000; stroke-width: 0.8; stroke-linejoin: miter; stroke-linecap: square"/>
   </g>
   <g id="patch_5">
    <path d="M 72 384.48 
L 518.4 384.48 
" style="fill: none; stroke: #000000; stroke-width: 0.8; stroke-linejoin: miter; stroke-linecap: square"/>
   </g>
   <g id="patch_6">
    <path d="M 72 51.84 
L 518.4 51.84 
" style="fill: none; stroke: #000000; stroke-width: 0.8; stroke-linejoin: miter; stroke-linecap: square"/>
   </g>
   <g id="legend_1">
    <g id="patch_7">
     <path d="M 79 131.4025 
L 131 131.4025 
Q 133 131.4025 133 129.4025 
L 133 58.84 
Q 133 56.84 131 56.84 
L 79 56.84 
Q 77 56.84 77 58.84 
L 77 129.4025 
Q 77 131.4025 79 131.4025 
z
" style="fill: #ffffff; opacity: 0.8; stroke: #cccccc; stroke-linejoin: miter"/>
    </g>
    <g id="PathCollection_6">
     <g>
      <use xlink:href="#m9c06d59ee3" x="91" y="66.300937" style="fill: #1f77b4; stroke: #1f77b4"/>
     </g>
    </g>
    <g id="text_14">
     <!-- 簇1 -->
     <g transform="translate(109 68.925937)scale(0.1 -0.1)">
      <defs>
       <path id="SimHei-7c07" d="M 4850 2200 
Q 5275 2200 5800 2225 
L 5800 1800 
Q 5300 1825 4850 1825 
L 4625 1825 
Q 4600 1525 4550 1150 
L 5100 1150 
Q 5550 1150 6050 1175 
L 6050 750 
Q 5550 775 5125 775 
L 4750 775 
Q 4900 425 5262 187 
Q 5625 -50 6175 -150 
Q 5925 -400 5850 -625 
Q 5275 -400 4962 -137 
Q 4650 125 4400 625 
Q 4225 275 3925 -37 
Q 3625 -350 2975 -700 
Q 2900 -450 2700 -250 
Q 3200 -75 3525 187 
Q 3850 450 4000 775 
L 3775 775 
Q 3325 775 2900 750 
L 2900 1175 
Q 3325 1150 3775 1150 
L 4125 1150 
Q 4200 1475 4200 1825 
L 3725 1825 
Q 3625 1625 3400 1225 
Q 3225 1375 3000 1450 
Q 3200 1700 3350 1987 
Q 3500 2275 3575 2575 
Q 3825 2475 4100 2400 
Q 3950 2300 3900 2200 
L 4850 2200 
z
M 2750 2475 
Q 2300 2500 2200 2500 
L 1625 2500 
Q 1625 2275 1600 1875 
L 2650 1875 
L 2575 200 
Q 2575 -225 2325 -350 
Q 2075 -475 1575 -550 
Q 1550 -250 1400 50 
Q 1800 25 1950 50 
Q 2100 75 2125 300 
L 2175 1475 
L 1550 1475 
Q 1500 1000 1312 525 
Q 1125 50 650 -575 
Q 500 -375 250 -225 
Q 550 75 750 412 
Q 950 750 1037 1100 
Q 1125 1450 1162 1800 
Q 1200 2150 1200 2500 
Q 925 2500 350 2475 
L 350 2900 
Q 900 2875 1250 2875 
L 1500 2875 
Q 1475 3125 1375 3450 
Q 1675 3475 1875 3525 
Q 1950 3125 1975 2875 
L 2200 2875 
Q 2375 2875 2750 2900 
L 2750 2475 
z
M 4575 5025 
Q 4350 4850 4275 4675 
L 5150 4675 
Q 5300 4675 5975 4700 
L 5975 4275 
Q 5475 4300 5325 4300 
L 5000 4300 
Q 5125 4200 5400 3775 
Q 5200 3675 5000 3550 
Q 4725 4050 4500 4300 
L 4025 4300 
Q 3900 4150 3425 3575 
Q 3250 3750 3050 3850 
Q 3425 4225 3662 4587 
Q 3900 4950 4050 5250 
Q 4275 5125 4575 5025 
z
M 2800 3775 
Q 2575 3700 2350 3575 
Q 2225 4000 2050 4300 
L 1550 4300 
Q 1200 3925 800 3575 
Q 650 3775 450 3900 
Q 800 4125 1087 4475 
Q 1375 4825 1600 5275 
Q 1850 5100 2100 5025 
Q 1900 4875 1750 4675 
L 2675 4675 
Q 3025 4675 3300 4700 
L 3300 4275 
Q 3050 4300 2525 4300 
Q 2625 4125 2800 3775 
z
M 3725 3725 
Q 3900 3600 4225 3475 
Q 4025 3325 3900 3150 
L 4975 3150 
Q 5350 3150 5900 3175 
L 5900 2750 
Q 5350 2775 4975 2775 
L 3650 2775 
L 3150 2125 
Q 2975 2300 2775 2400 
Q 3275 2850 3725 3725 
z
" transform="scale(0.015625)"/>
      </defs>
      <use xlink:href="#SimHei-7c07"/>
      <use xlink:href="#SimHei-31" x="100"/>
     </g>
    </g>
    <g id="PathCollection_7">
     <g>
      <use xlink:href="#m0f004b8ac5" x="91" y="80.636875" style="fill: #ff7f0e; stroke: #ff7f0e"/>
     </g>
    </g>
    <g id="text_15">
     <!-- 簇2 -->
     <g transform="translate(109 83.261875)scale(0.1 -0.1)">
      <use xlink:href="#SimHei-7c07"/>
      <use xlink:href="#SimHei-32" x="100"/>
     </g>
    </g>
    <g id="PathCollection_8">
     <g>
      <use xlink:href="#mc457200f9a" x="91" y="94.972812" style="fill: #2ca02c; stroke: #2ca02c"/>
     </g>
    </g>
    <g id="text_16">
     <!-- 簇3 -->
     <g transform="translate(109 97.597812)scale(0.1 -0.1)">
      <use xlink:href="#SimHei-7c07"/>
      <use xlink:href="#SimHei-33" x="100"/>
     </g>
    </g>
    <g id="PathCollection_9">
     <g>
      <use xlink:href="#ma7c3e86898" x="91" y="109.30875" style="fill: #d62728; stroke: #d62728"/>
     </g>
    </g>
    <g id="text_17">
     <!-- 簇4 -->
     <g transform="translate(109 111.93375)scale(0.1 -0.1)">
      <use xlink:href="#SimHei-7c07"/>
      <use xlink:href="#SimHei-34" x="100"/>
     </g>
    </g>
    <g id="PathCollection_10">
     <g>
      <use xlink:href="#m72acc6e06c" x="91" y="123.5275" style="fill: #ff0000; stroke: #ff0000; stroke-width: 1.5"/>
     </g>
    </g>
    <g id="text_18">
     <!-- 质心 -->
     <g transform="translate(109 126.1525)scale(0.1 -0.1)">
      <defs>
       <path id="SimHei-8d28" d="M 1700 3700 
Q 2125 3675 2550 3675 
L 3400 3675 
L 3400 4325 
Q 1875 4250 1575 4250 
L 1575 3675 
Q 1550 2525 1525 1962 
Q 1500 1400 1387 837 
Q 1275 275 875 -450 
Q 650 -300 300 -225 
Q 700 300 850 862 
Q 1000 1425 1037 2325 
Q 1075 3225 1075 3725 
Q 1075 4250 1050 4650 
Q 1775 4650 2437 4675 
Q 3100 4700 3900 4775 
Q 4700 4850 5275 5075 
Q 5325 4825 5600 4500 
Q 5300 4500 4912 4462 
Q 4525 4425 3875 4375 
L 3875 3675 
L 5125 3675 
Q 5475 3675 5900 3700 
L 5900 3225 
Q 5525 3250 5125 3250 
L 3875 3250 
L 3875 2600 
L 5425 2600 
Q 5400 2175 5400 1750 
Q 5400 1325 5425 900 
L 4900 900 
L 4900 2200 
L 2575 2200 
L 2575 750 
L 2075 750 
Q 2100 1225 2100 1700 
Q 2100 2175 2075 2600 
L 3400 2600 
L 3400 3250 
L 2550 3250 
Q 2125 3250 1700 3225 
L 1700 3700 
z
M 4000 1800 
Q 3900 1400 3837 912 
Q 3775 425 3262 25 
Q 2750 -375 1875 -650 
Q 1825 -450 1525 -250 
Q 2225 -75 2637 150 
Q 3050 375 3225 687 
Q 3400 1000 3425 1350 
Q 3450 1700 3425 1875 
Q 3725 1850 4000 1800 
z
M 4250 850 
Q 4650 650 5137 375 
Q 5625 100 6000 -175 
Q 5850 -300 5675 -575 
Q 5125 -125 4000 425 
Q 4150 675 4250 850 
z
" transform="scale(0.015625)"/>
       <path id="SimHei-5fc3" d="M 2700 3425 
Q 2675 3125 2675 2525 
L 2675 375 
Q 2675 75 2975 75 
L 4150 75 
Q 4425 50 4512 212 
Q 4600 375 4650 950 
Q 4900 750 5225 675 
Q 5050 -125 4875 -287 
Q 4700 -450 4450 -425 
L 2625 -425 
Q 2175 -425 2125 125 
L 2125 2500 
Q 2125 3000 2100 3425 
L 2700 3425 
z
M 1475 3075 
Q 1400 2925 1275 2287 
Q 1150 1650 925 750 
Q 625 850 325 900 
Q 675 1900 850 3200 
Q 1075 3150 1475 3075 
z
M 5075 3300 
Q 5650 2500 6175 1700 
Q 5900 1575 5650 1350 
Q 5125 2350 4625 3000 
Q 4850 3125 5075 3300 
z
M 3050 5250 
Q 3325 4775 3925 3925 
Q 3625 3775 3375 3600 
Q 2975 4425 2600 4950 
Q 2825 5075 3050 5250 
z
" transform="scale(0.015625)"/>
      </defs>
      <use xlink:href="#SimHei-8d28"/>
      <use xlink:href="#SimHei-5fc3" x="100"/>
     </g>
    </g>
   </g>
  </g>
 </g>
 <defs>
  <clipPath id="p3af33a5c3b">
   <rect x="72" y="51.84" width="446.4" height="332.64"/>
  </clipPath>
 </defs>
</svg>
