<?xml version="1.0" encoding="utf-8" standalone="no"?>
<!DOCTYPE svg PUBLIC "-//W3C//DTD SVG 1.1//EN"
  "http://www.w3.org/Graphics/SVG/1.1/DTD/svg11.dtd">
<svg xmlns:xlink="http://www.w3.org/1999/xlink" width="548.352pt" height="502.848pt" viewBox="0 0 548.352 502.848" xmlns="http://www.w3.org/2000/svg" version="1.1">
 <metadata>
  <rdf:RDF xmlns:dc="http://purl.org/dc/elements/1.1/" xmlns:cc="http://creativecommons.org/ns#" xmlns:rdf="http://www.w3.org/1999/02/22-rdf-syntax-ns#">
   <cc:Work>
    <dc:type rdf:resource="http://purl.org/dc/dcmitype/StillImage"/>
    <dc:date>2024-03-27T20:59:16.864485</dc:date>
    <dc:format>image/svg+xml</dc:format>
    <dc:creator>
     <cc:Agent>
      <dc:title>Matplotlib v3.5.1, https://matplotlib.org/</dc:title>
     </cc:Agent>
    </dc:creator>
   </cc:Work>
  </rdf:RDF>
 </metadata>
 <defs>
  <style type="text/css">*{stroke-linejoin: round; stroke-linecap: butt}</style>
 </defs>
 <g id="figure_1">
  <g id="patch_1">
   <path d="M 0 502.848 
L 548.352 502.848 
L 548.352 0 
L 0 0 
z
" style="fill: #ffffff"/>
  </g>
  <g id="axes_1">
   <g id="matplotlib.axis_1"/>
   <g id="matplotlib.axis_2"/>
   <g id="text_1">
    <!--   -->
    <g transform="translate(278.5304 63.15426)scale(0.1 -0.1)">
     <defs>
      <path id="SimHei-20" transform="scale(0.015625)"/>
     </defs>
     <use xlink:href="#SimHei-20"/>
    </g>
   </g>
   <g id="patch_2">
    <path d="M 281.0304 63.460669 
Q 281.0304 63.570942 281.0304 64.799249 
" style="fill: none; stroke: #000000; stroke-linecap: round"/>
    <path d="M 279.0304 67.460669 
L 281.0304 63.460669 
L 283.0304 67.460669 
" style="fill: none; stroke: #000000; stroke-linecap: round"/>
   </g>
   <g id="text_2">
    <g id="patch_3">
     <path d="M 245.5304 67.951135 
L 316.5304 67.951135 
L 316.5304 52.732385 
L 245.5304 52.732385 
z
" style="fill: #e6e6e6; stroke: #000000; stroke-linejoin: miter"/>
    </g>
    <!-- 含糖率≤0.126 -->
    <g transform="translate(248.5304 63.701135)scale(0.1 -0.1)">
     <defs>
      <path id="SimHei-542b" d="M 4525 -575 
L 4525 -200 
L 1850 -200 
L 1850 -625 
L 1325 -625 
Q 1350 -275 1350 275 
Q 1350 850 1325 1450 
L 5050 1450 
Q 5025 1175 5025 425 
Q 5025 -300 5050 -575 
L 4525 -575 
z
M 3350 4850 
Q 3625 4525 4325 4062 
Q 5025 3600 6150 3300 
Q 5850 3075 5750 2750 
Q 5050 3025 4337 3462 
Q 3625 3900 3125 4500 
Q 2500 3800 1912 3387 
Q 1325 2975 625 2650 
Q 550 2850 275 3100 
Q 1100 3325 1862 3925 
Q 2625 4525 2975 5275 
Q 3325 5150 3525 5050 
L 3350 4850 
z
M 4525 200 
L 4525 1050 
L 1850 1050 
L 1850 200 
L 4525 200 
z
M 4775 2875 
Q 4525 2600 4200 2200 
Q 3875 1800 3600 1500 
Q 3425 1675 3250 1750 
Q 3525 2025 3875 2500 
L 1975 2500 
Q 1750 2500 1350 2475 
L 1350 2900 
Q 1750 2875 1975 2875 
L 4775 2875 
z
M 3050 3925 
Q 3425 3400 3475 3225 
Q 3375 3200 3050 3025 
Q 2850 3475 2675 3700 
Q 2925 3800 3050 3925 
z
" transform="scale(0.015625)"/>
      <path id="SimHei-7cd6" d="M 4525 5275 
Q 4625 4975 4725 4625 
Q 5675 4625 6075 4650 
L 6075 4225 
Q 5675 4250 4675 4250 
L 3200 4250 
L 3200 2975 
L 4250 2975 
L 4250 3375 
Q 3800 3375 3500 3350 
L 3500 3800 
Q 3800 3775 4250 3775 
L 4250 4100 
L 4675 4100 
L 4675 3775 
L 5725 3775 
Q 5700 3425 5700 2975 
Q 5875 2975 6125 3000 
L 6125 2550 
Q 5875 2575 5700 2575 
Q 5700 2075 5725 1725 
L 4675 1725 
L 4675 1375 
L 4250 1375 
L 4250 1725 
Q 3825 1725 3500 1700 
L 3500 2150 
Q 3825 2125 4250 2125 
L 4250 2575 
L 3200 2575 
Q 3200 1600 3012 875 
Q 2825 150 2225 -625 
Q 2050 -425 1775 -325 
Q 2275 275 2500 862 
Q 2725 1450 2750 2162 
Q 2775 2875 2775 3450 
Q 2775 4050 2750 4625 
L 4200 4625 
Q 4125 4875 3975 5125 
Q 4275 5175 4525 5275 
z
M 1250 4425 
Q 1250 4975 1225 5225 
L 1725 5225 
Q 1700 4875 1700 4425 
L 1700 3125 
Q 2075 3125 2500 3150 
L 2500 2700 
Q 2075 2725 1700 2725 
L 1700 300 
Q 1700 -100 1725 -625 
L 1225 -625 
Q 1250 -100 1250 300 
L 1250 1675 
Q 1025 1125 550 375 
Q 425 625 200 825 
Q 475 1150 762 1712 
Q 1050 2275 1150 2725 
Q 725 2725 300 2700 
L 300 3150 
Q 750 3125 1250 3125 
L 1250 4425 
z
M 5750 1250 
Q 5725 775 5725 350 
Q 5725 -75 5750 -475 
L 5275 -475 
L 5275 -200 
L 3825 -200 
L 3825 -575 
L 3375 -575 
Q 3400 -175 3400 300 
Q 3400 775 3375 1250 
L 5750 1250 
z
M 5275 200 
L 5275 850 
L 3825 850 
L 3825 200 
L 5275 200 
z
M 2650 4525 
Q 2575 4375 2500 4100 
Q 2425 3825 2250 3375 
Q 2050 3450 1825 3500 
Q 2025 4100 2125 4675 
Q 2450 4575 2650 4525 
z
M 675 4625 
Q 900 4075 1025 3575 
Q 850 3500 600 3400 
Q 450 4050 275 4475 
Q 500 4525 675 4625 
z
M 2575 1475 
Q 2275 1350 2100 1250 
Q 1975 1650 1750 2150 
Q 1975 2225 2150 2325 
L 2575 1475 
z
M 5250 2125 
L 5250 2575 
L 4675 2575 
L 4675 2125 
L 5250 2125 
z
M 5250 2975 
L 5250 3375 
L 4675 3375 
L 4675 2975 
L 5250 2975 
z
" transform="scale(0.015625)"/>
      <path id="SimHei-7387" d="M 3325 5150 
Q 3425 4900 3550 4525 
L 4800 4525 
Q 5250 4525 5800 4550 
L 5800 4125 
Q 5250 4175 4775 4175 
L 2800 4175 
Q 2975 4050 3300 3900 
Q 3075 3750 2875 3537 
Q 2675 3325 2475 3125 
L 3275 3125 
Q 3575 3425 3775 3775 
Q 4000 3600 4275 3425 
Q 3950 3250 3600 2875 
Q 3250 2500 2625 2000 
L 3850 2100 
Q 3725 2250 3600 2425 
Q 3750 2475 4000 2650 
Q 4250 2350 4700 1700 
Q 4475 1625 4225 1450 
Q 4175 1600 4025 1775 
Q 3700 1750 3425 1750 
L 3425 1050 
L 5150 1050 
Q 5675 1050 6100 1075 
L 6100 650 
Q 5700 675 5125 675 
L 3425 675 
L 3425 175 
Q 3425 -300 3450 -625 
L 2900 -625 
Q 2925 -300 2925 175 
L 2925 675 
L 1325 675 
Q 825 675 325 650 
L 325 1075 
Q 825 1050 1350 1050 
L 2925 1050 
L 2925 1700 
Q 2700 1675 2475 1637 
Q 2250 1600 2025 1525 
Q 1950 1775 1850 2000 
Q 2075 2025 2325 2200 
Q 2575 2375 2975 2800 
Q 2300 2725 2025 2625 
Q 1975 2875 1850 3175 
Q 2075 3175 2325 3487 
Q 2575 3800 2750 4175 
L 1700 4175 
Q 1150 4175 650 4125 
L 650 4550 
Q 1150 4525 1550 4525 
L 2975 4525 
Q 2900 4825 2800 5025 
Q 3025 5075 3325 5150 
z
M 1625 2575 
Q 1725 2400 1825 2200 
Q 1575 2050 1325 1862 
Q 1075 1675 800 1425 
Q 625 1675 475 1875 
Q 800 2025 1100 2212 
Q 1400 2400 1625 2575 
z
M 4850 2650 
Q 5125 2475 5337 2337 
Q 5550 2200 5875 1950 
Q 5675 1800 5500 1600 
Q 5300 1775 5062 1975 
Q 4825 2175 4575 2325 
Q 4725 2475 4850 2650 
z
M 5725 3525 
Q 5550 3450 5300 3262 
Q 5050 3075 4800 2825 
Q 4625 3050 4475 3175 
Q 4700 3325 4875 3487 
Q 5050 3650 5300 3925 
Q 5525 3700 5725 3525 
z
M 1050 3850 
Q 1425 3600 1775 3275 
Q 1575 3100 1425 2925 
Q 1075 3300 675 3525 
Q 875 3700 1050 3850 
z
" transform="scale(0.015625)"/>
      <path id="SimHei-2264" d="M 5675 275 
L 5600 -75 
L 700 1575 
L 775 1900 
L 5675 275 
z
M 5675 4375 
L 1525 2975 
L 5675 1625 
L 5600 1250 
L 700 2925 
L 700 3050 
L 5575 4700 
L 5675 4375 
z
" transform="scale(0.015625)"/>
      <path id="SimHei-30" d="M 225 2537 
Q 250 3200 412 3587 
Q 575 3975 875 4225 
Q 1175 4475 1612 4475 
Q 2050 4475 2375 4112 
Q 2700 3750 2800 3200 
Q 2900 2650 2862 1937 
Q 2825 1225 2612 775 
Q 2400 325 1975 150 
Q 1550 -25 1125 187 
Q 700 400 525 750 
Q 350 1100 275 1487 
Q 200 1875 225 2537 
z
M 750 2687 
Q 675 2000 800 1462 
Q 925 925 1212 700 
Q 1500 475 1800 612 
Q 2100 750 2237 1162 
Q 2375 1575 2375 2062 
Q 2375 2550 2337 2950 
Q 2300 3350 2112 3675 
Q 1925 4000 1612 4012 
Q 1300 4025 1062 3700 
Q 825 3375 750 2687 
z
" transform="scale(0.015625)"/>
      <path id="SimHei-2e" d="M 1075 125 
L 500 125 
L 500 675 
L 1075 675 
L 1075 125 
z
" transform="scale(0.015625)"/>
      <path id="SimHei-31" d="M 1400 3600 
Q 1075 3275 575 2975 
L 575 3450 
Q 1200 3875 1600 4450 
L 1900 4450 
L 1900 150 
L 1400 150 
L 1400 3600 
z
" transform="scale(0.015625)"/>
      <path id="SimHei-32" d="M 300 250 
Q 325 625 650 925 
Q 975 1225 1475 1862 
Q 1975 2500 2125 2850 
Q 2275 3200 2237 3450 
Q 2200 3700 2000 3862 
Q 1800 4025 1537 4000 
Q 1275 3975 1037 3800 
Q 800 3625 675 3275 
L 200 3350 
Q 400 3925 712 4187 
Q 1025 4450 1450 4475 
Q 1700 4500 1900 4462 
Q 2100 4425 2312 4287 
Q 2525 4150 2662 3875 
Q 2800 3600 2762 3212 
Q 2725 2825 2375 2287 
Q 2025 1750 1025 600 
L 2825 600 
L 2825 150 
L 300 150 
L 300 250 
z
" transform="scale(0.015625)"/>
      <path id="SimHei-36" d="M 250 1612 
Q 275 1975 387 2225 
Q 500 2475 725 2850 
L 1750 4450 
L 2325 4450 
L 1275 2800 
Q 1950 2975 2350 2750 
Q 2750 2525 2887 2237 
Q 3025 1950 3037 1612 
Q 3050 1275 2937 950 
Q 2825 625 2537 362 
Q 2250 100 1737 75 
Q 1225 50 862 262 
Q 500 475 362 862 
Q 225 1250 250 1612 
z
M 1025 787 
Q 1250 550 1625 525 
Q 2000 500 2250 775 
Q 2500 1050 2500 1575 
Q 2500 2100 2187 2300 
Q 1875 2500 1487 2450 
Q 1100 2400 925 2075 
Q 750 1750 775 1387 
Q 800 1025 1025 787 
z
" transform="scale(0.015625)"/>
     </defs>
     <use xlink:href="#SimHei-542b"/>
     <use xlink:href="#SimHei-7cd6" x="100"/>
     <use xlink:href="#SimHei-7387" x="200"/>
     <use xlink:href="#SimHei-2264" x="300"/>
     <use xlink:href="#SimHei-30" x="400"/>
     <use xlink:href="#SimHei-2e" x="450"/>
     <use xlink:href="#SimHei-31" x="500"/>
     <use xlink:href="#SimHei-32" x="550"/>
     <use xlink:href="#SimHei-36" x="600"/>
    </g>
   </g>
   <g id="patch_4">
    <path d="M 118.744945 149.595663 
Q 198.499021 108.903832 279.248995 67.703878 
" style="fill: none; stroke: #000000; stroke-linecap: round"/>
    <path d="M 123.216933 149.559262 
L 118.744945 149.595663 
L 121.399017 145.996233 
" style="fill: none; stroke: #000000; stroke-linecap: round"/>
   </g>
   <g id="text_3">
    <g id="patch_5">
     <path d="M 92.4584 163.132188 
C 93.9584 164.632188 113.9584 164.632188 115.4584 163.132188 
C 116.9584 161.632188 116.9584 152.647813 115.4584 151.147813 
C 113.9584 149.647813 93.9584 149.647813 92.4584 151.147813 
C 90.9584 152.647813 90.9584 161.632188 92.4584 163.132188 
z
" style="fill: #cccccc; stroke: #000000; stroke-linejoin: miter"/>
    </g>
    <!-- 坏瓜 -->
    <g transform="translate(93.9584 160.382188)scale(0.1 -0.1)">
     <defs>
      <path id="SimHei-574f" d="M 5075 4600 
Q 5475 4600 6050 4625 
L 6050 4150 
Q 5500 4175 5075 4175 
L 4600 4175 
Q 4375 3450 4400 3350 
L 4400 250 
Q 4400 -225 4425 -650 
L 3900 -650 
Q 3925 -250 3925 150 
L 3925 2325 
Q 3375 1250 2450 350 
Q 2350 500 2050 700 
Q 2525 1050 2837 1450 
Q 3150 1850 3450 2412 
Q 3750 2975 3862 3350 
Q 3975 3725 4075 4175 
L 3375 4175 
Q 2975 4175 2400 4150 
L 2400 4625 
Q 2975 4600 3375 4600 
L 5075 4600 
z
M 1175 3500 
L 1175 4225 
Q 1175 4675 1150 5050 
L 1675 5050 
Q 1650 4675 1650 4225 
L 1650 3500 
L 1825 3500 
Q 2125 3500 2500 3525 
L 2500 3050 
Q 2125 3075 1825 3075 
L 1650 3075 
L 1650 1425 
Q 1825 1475 2425 1775 
Q 2450 1450 2500 1275 
Q 2050 1125 1462 862 
Q 875 600 475 350 
Q 375 675 225 950 
Q 425 975 587 1037 
Q 750 1100 1175 1275 
L 1175 3075 
L 1075 3075 
Q 725 3075 325 3050 
L 325 3525 
Q 725 3500 1050 3500 
L 1175 3500 
z
M 5000 2975 
Q 5225 2650 5462 2300 
Q 5700 1950 6150 1200 
Q 5925 1075 5675 875 
Q 5325 1550 5100 1925 
Q 4875 2300 4600 2675 
Q 4750 2750 5000 2975 
z
" transform="scale(0.015625)"/>
      <path id="SimHei-74dc" d="M 3350 975 
Q 3600 1050 3800 1150 
Q 3900 925 4062 550 
Q 4225 175 4425 -250 
Q 4125 -350 3975 -475 
Q 3850 -175 3750 50 
Q 3325 -25 3087 -125 
Q 2850 -225 2425 -475 
Q 2275 -175 2150 0 
Q 2350 125 2412 462 
Q 2475 800 2525 1337 
Q 2575 1875 2587 2575 
Q 2600 3275 2600 4100 
Q 1900 4075 1625 4050 
Q 1625 3375 1600 2762 
Q 1575 2150 1487 1550 
Q 1400 950 1225 400 
Q 1050 -150 775 -675 
Q 500 -500 225 -375 
Q 625 75 825 787 
Q 1025 1500 1075 2225 
Q 1125 2950 1112 3575 
Q 1100 4200 1075 4475 
Q 1550 4475 2025 4500 
Q 2500 4525 2950 4587 
Q 3400 4650 3937 4762 
Q 4475 4875 4950 5075 
Q 5150 4675 5325 4550 
Q 5275 4575 5000 4512 
Q 4725 4450 4400 4375 
Q 4425 3525 4500 2950 
Q 4575 2375 4775 1800 
Q 4975 1225 5337 725 
Q 5700 225 6200 -100 
Q 5850 -350 5725 -575 
Q 5400 -300 5087 100 
Q 4775 500 4525 1087 
Q 4275 1675 4125 2462 
Q 3975 3250 3975 4300 
Q 3475 4200 3050 4150 
Q 3025 2675 3012 1975 
Q 3000 1275 2850 225 
Q 3175 300 3600 425 
L 3350 975 
z
" transform="scale(0.015625)"/>
     </defs>
     <use xlink:href="#SimHei-574f"/>
     <use xlink:href="#SimHei-74dc" x="100"/>
    </g>
   </g>
   <g id="text_4">
    <!-- 是 -->
    <g transform="translate(187.4944 111.904943)scale(0.1 -0.1)">
     <defs>
      <path id="SimHei-662f" d="M 5075 5000 
Q 5050 4625 5050 3950 
Q 5050 3300 5075 2725 
L 1350 2725 
Q 1375 3300 1375 3950 
Q 1375 4625 1350 5000 
L 5075 5000 
z
M 5075 2275 
Q 5500 2275 6025 2300 
L 6025 1850 
Q 5500 1875 5075 1875 
L 3475 1875 
L 3475 1250 
Q 4950 1250 5400 1275 
L 5400 825 
Q 4950 850 3475 850 
L 3475 100 
Q 3950 25 4650 25 
Q 5350 25 6200 125 
Q 6000 -150 5950 -475 
L 4675 -475 
Q 4125 -475 3650 -412 
Q 3175 -350 2712 -175 
Q 2250 0 1725 450 
Q 1625 250 1437 -12 
Q 1250 -275 875 -650 
Q 625 -450 375 -300 
Q 875 0 1200 575 
Q 1525 1150 1575 1650 
L 2175 1475 
Q 2100 1375 1925 900 
Q 2375 425 3000 225 
L 3000 1875 
L 1400 1875 
Q 950 1875 450 1850 
L 450 2300 
Q 975 2275 1400 2275 
L 5075 2275 
z
M 4550 3150 
L 4550 3675 
L 1875 3675 
L 1875 3150 
L 4550 3150 
z
M 4550 4100 
L 4550 4600 
L 1875 4600 
L 1875 4100 
L 4550 4100 
z
" transform="scale(0.015625)"/>
     </defs>
     <use xlink:href="#SimHei-662f"/>
    </g>
   </g>
   <g id="text_5">
    <!-- 否 -->
    <g transform="translate(293.7376 111.729161)scale(0.1 -0.1)">
     <defs>
      <path id="SimHei-5426" d="M 700 4800 
Q 1075 4775 1675 4775 
L 4800 4775 
Q 5525 4775 5750 4800 
L 5750 4325 
Q 5275 4350 4775 4350 
L 3725 4350 
L 3350 3975 
L 3350 1900 
L 5200 1900 
Q 5175 1675 5175 650 
Q 5175 -375 5200 -575 
L 4650 -575 
L 4650 -125 
L 1750 -125 
L 1750 -625 
L 1200 -625 
Q 1225 -325 1225 600 
Q 1225 1550 1200 1900 
L 2800 1900 
L 2800 3400 
Q 2500 3100 1762 2700 
Q 1025 2300 600 2125 
Q 475 2400 250 2600 
Q 900 2800 1725 3300 
Q 2550 3800 3000 4350 
L 1750 4350 
Q 1175 4350 700 4325 
L 700 4800 
z
M 4650 325 
L 4650 1450 
L 1750 1450 
L 1750 325 
L 4650 325 
z
M 4075 3725 
Q 4625 3450 5075 3237 
Q 5525 3025 6125 2675 
Q 6000 2450 5800 2150 
Q 5250 2500 4762 2762 
Q 4275 3025 3800 3250 
Q 3950 3450 4075 3725 
z
" transform="scale(0.015625)"/>
     </defs>
     <use xlink:href="#SimHei-5426"/>
    </g>
   </g>
   <g id="patch_6">
    <path d="M 312.15886 146.206216 
Q 297.163882 107.952806 281.760875 68.658477 
" style="fill: none; stroke: #000000; stroke-linecap: round"/>
    <path d="M 312.561098 141.752207 
L 312.15886 146.206216 
L 308.836995 143.21202 
" style="fill: none; stroke: #000000; stroke-linecap: round"/>
   </g>
   <g id="text_6">
    <g id="patch_7">
     <path d="M 303.4448 164.67125 
L 329.4448 164.67125 
L 329.4448 149.60875 
L 303.4448 149.60875 
z
" style="fill: #e6e6e6; stroke: #000000; stroke-linejoin: miter"/>
    </g>
    <!-- 根蒂 -->
    <g transform="translate(306.4448 160.42125)scale(0.1 -0.1)">
     <defs>
      <path id="SimHei-6839" d="M 5825 1850 
Q 5625 1750 5375 1512 
Q 5125 1275 4825 975 
Q 5025 675 5400 437 
Q 5775 200 6100 125 
Q 5850 -75 5700 -400 
Q 5175 -100 4837 237 
Q 4500 575 4325 912 
Q 4150 1250 4050 1650 
Q 3950 2050 3925 2400 
L 3425 2400 
L 3425 225 
Q 3775 425 4125 650 
Q 4150 400 4225 150 
Q 4025 50 3662 -162 
Q 3300 -375 3075 -600 
Q 2900 -350 2725 -175 
Q 2900 50 2950 325 
L 2950 3775 
Q 2950 4325 2925 4850 
L 5500 4850 
Q 5475 4400 5475 3625 
Q 5475 2850 5500 2400 
L 4375 2400 
Q 4375 1950 4600 1400 
Q 4800 1575 5000 1787 
Q 5200 2000 5400 2275 
L 5825 1850 
z
M 200 1075 
Q 650 1575 900 2162 
Q 1150 2750 1275 3325 
Q 850 3325 450 3300 
L 450 3775 
Q 875 3750 1375 3750 
L 1375 4325 
Q 1375 4700 1350 5050 
L 1900 5050 
Q 1850 4750 1850 4325 
L 1850 3750 
Q 2175 3750 2575 3775 
L 2575 3300 
Q 2175 3325 1850 3325 
L 1850 475 
Q 1875 -300 1875 -575 
L 1350 -575 
Q 1375 -25 1375 475 
L 1375 2175 
Q 1175 1475 625 650 
Q 450 850 200 1075 
z
M 5025 2775 
L 5025 3450 
L 3425 3450 
L 3425 2775 
L 5025 2775 
z
M 5025 3825 
L 5025 4450 
L 3425 4450 
L 3425 3825 
L 5025 3825 
z
M 2350 2775 
Q 2600 2300 2875 1700 
Q 2650 1600 2425 1425 
Q 2150 2100 1900 2525 
L 2350 2775 
z
" transform="scale(0.015625)"/>
      <path id="SimHei-8482" d="M 4375 -325 
Q 4300 -25 4150 200 
Q 4625 200 4687 262 
Q 4750 325 4750 575 
L 4750 1000 
L 3475 1000 
L 3475 250 
Q 3475 -225 3500 -600 
L 2975 -600 
Q 3000 -250 3000 250 
L 3000 1000 
L 1750 1000 
L 1750 -275 
L 1250 -275 
Q 1275 150 1275 575 
Q 1275 1000 1250 1400 
L 3000 1400 
L 3000 1925 
L 925 1925 
L 925 1350 
L 400 1350 
Q 425 1625 425 1850 
Q 425 2075 400 2325 
L 2175 2325 
Q 2050 2550 1875 2775 
Q 2100 2900 2225 3025 
L 1525 3025 
Q 925 3025 575 3000 
L 575 3450 
Q 925 3425 1525 3425 
L 3025 3425 
Q 2975 3700 2850 3900 
Q 3125 3950 3375 4050 
Q 3500 3750 3575 3425 
L 4900 3425 
Q 5575 3425 5925 3450 
L 5925 3000 
Q 5575 3025 4900 3025 
L 4050 3025 
Q 4300 2925 4525 2800 
Q 4350 2625 4200 2325 
L 6075 2325 
Q 6050 2050 6050 1825 
Q 6050 1625 6075 1375 
L 5600 1375 
L 5600 1925 
L 3475 1925 
L 3475 1400 
L 5250 1400 
Q 5225 1050 5225 800 
L 5225 275 
Q 5225 -25 5000 -137 
Q 4775 -250 4375 -325 
z
M 1950 3675 
Q 1975 3975 1975 4275 
L 1300 4275 
Q 1000 4275 550 4250 
L 550 4675 
Q 1000 4650 1300 4650 
L 1975 4650 
Q 1975 4900 1950 5200 
L 2500 5200 
Q 2450 5000 2450 4650 
L 3925 4650 
Q 3925 4900 3900 5200 
L 4450 5200 
Q 4400 4975 4400 4650 
L 5050 4650 
Q 5475 4650 5875 4675 
L 5875 4250 
Q 5500 4275 5050 4275 
L 4400 4275 
Q 4400 4050 4425 3775 
L 3900 3775 
Q 3925 4050 3925 4275 
L 2450 4275 
Q 2450 3975 2475 3675 
L 1950 3675 
z
M 2300 3025 
Q 2475 2750 2650 2500 
L 2300 2325 
L 3700 2325 
Q 3875 2625 3975 3025 
L 2300 3025 
z
" transform="scale(0.015625)"/>
     </defs>
     <use xlink:href="#SimHei-6839"/>
     <use xlink:href="#SimHei-8482" x="100"/>
    </g>
   </g>
   <g id="patch_8">
    <path d="M 188.262864 245.343861 
Q 251.0412 205.305696 314.762177 164.666343 
" style="fill: none; stroke: #000000; stroke-linecap: round"/>
    <path d="M 192.710798 244.87923 
L 188.262864 245.343861 
L 190.55992 241.506735 
" style="fill: none; stroke: #000000; stroke-linecap: round"/>
   </g>
   <g id="text_7">
    <g id="patch_9">
     <path d="M 163.2872 260.028084 
C 164.7872 261.528084 184.7872 261.528084 186.2872 260.028084 
C 187.7872 258.528084 187.7872 249.348396 186.2872 247.848396 
C 184.7872 246.348396 164.7872 246.348396 163.2872 247.848396 
C 161.7872 249.348396 161.7872 258.528084 163.2872 260.028084 
z
" style="fill: #cccccc; stroke: #000000; stroke-linejoin: miter"/>
    </g>
    <!-- 好瓜 -->
    <g transform="translate(164.7872 257.278084)scale(0.1 -0.1)">
     <defs>
      <path id="SimHei-597d" d="M 2025 5050 
Q 1875 4775 1800 4437 
Q 1725 4100 1650 3775 
L 2900 3775 
Q 2775 3025 2625 2425 
Q 2475 1825 2150 1175 
Q 2550 825 3075 325 
Q 2850 150 2675 -50 
Q 2300 425 1900 775 
Q 1575 375 1250 62 
Q 925 -250 575 -525 
Q 475 -350 200 -150 
Q 575 75 912 362 
Q 1250 650 1550 1075 
Q 1100 1425 575 1750 
Q 900 2500 1100 3375 
Q 700 3375 400 3350 
L 400 3800 
Q 700 3775 1200 3775 
Q 1350 4375 1450 5200 
Q 1700 5125 2025 5050 
z
M 5900 4600 
L 5900 4150 
Q 5650 3950 5350 3712 
Q 5050 3475 4725 3200 
L 4725 2425 
L 5400 2425 
Q 5725 2425 6125 2450 
L 6125 1975 
Q 5725 2000 5400 2000 
L 4725 2000 
L 4725 200 
Q 4725 -275 4437 -400 
Q 4150 -525 3650 -600 
Q 3575 -325 3425 -25 
Q 3975 -25 4112 37 
Q 4250 100 4250 400 
L 4250 2000 
L 3875 2000 
Q 3350 2000 2850 1975 
L 2850 2450 
Q 3350 2425 3800 2425 
L 4250 2425 
Q 4250 2800 4237 3012 
Q 4225 3225 4175 3350 
Q 4400 3500 4700 3737 
Q 5000 3975 5225 4200 
L 3725 4200 
Q 3475 4200 3050 4175 
L 3050 4625 
Q 3475 4600 3725 4600 
L 5900 4600 
z
M 1125 1925 
Q 1500 1675 1775 1475 
Q 1950 1775 2100 2275 
Q 2250 2775 2350 3375 
L 1575 3375 
Q 1350 2550 1125 1925 
z
" transform="scale(0.015625)"/>
     </defs>
     <use xlink:href="#SimHei-597d"/>
     <use xlink:href="#SimHei-74dc" x="100"/>
    </g>
   </g>
   <g id="text_8">
    <!-- 蜷缩 -->
    <g transform="translate(235.616 208.97662)scale(0.1 -0.1)">
     <defs>
      <path id="SimHei-8737" d="M 5300 2975 
Q 5800 2975 6075 3000 
L 6075 2550 
Q 5800 2575 5400 2575 
L 5150 2575 
Q 5300 2125 5600 1887 
Q 5900 1650 6175 1575 
Q 5975 1400 5850 1125 
Q 5475 1350 5200 1675 
L 5200 1025 
Q 5200 675 5037 612 
Q 4875 550 4500 475 
Q 4425 750 4325 950 
Q 4700 950 4750 1000 
Q 4800 1050 4800 1500 
L 3950 1500 
L 3950 125 
Q 3950 -150 4300 -150 
L 5125 -150 
Q 5325 -150 5400 -100 
Q 5475 -50 5575 475 
Q 5775 300 6050 200 
Q 5875 -325 5750 -437 
Q 5625 -550 5300 -550 
L 4175 -550 
Q 3500 -550 3500 -25 
L 3500 1550 
Q 3375 1400 2925 950 
Q 2750 1150 2525 1325 
Q 3050 1625 3287 1912 
Q 3525 2200 3725 2575 
L 3525 2575 
Q 3100 2575 2775 2550 
L 2775 3000 
Q 3075 2975 3550 2975 
L 3875 2975 
Q 3950 3200 4025 3475 
L 3725 3475 
Q 3300 3475 3050 3450 
L 3050 3900 
Q 3275 3875 3725 3875 
L 4075 3875 
Q 4125 4300 4125 4625 
Q 4125 4950 4100 5275 
Q 4325 5250 4625 5225 
Q 4550 4950 4525 4587 
Q 4500 4225 4475 3875 
L 5175 3875 
Q 5575 3875 5825 3900 
L 5825 3450 
Q 5450 3475 5225 3475 
L 4425 3475 
Q 4375 3175 4325 2975 
L 5300 2975 
z
M 2325 -50 
Q 2275 150 2225 325 
Q 1850 250 1337 112 
Q 825 -25 375 -175 
Q 300 125 200 350 
Q 700 450 1275 550 
L 1275 1900 
L 875 1900 
L 875 1500 
L 425 1500 
Q 450 1950 450 2325 
L 450 3075 
Q 450 3500 425 4075 
L 1275 4075 
Q 1275 4675 1250 5300 
L 1725 5300 
Q 1700 5025 1700 4075 
L 2575 4075 
Q 2550 3500 2550 3075 
L 2550 2650 
Q 2550 2250 2575 1675 
L 2100 1675 
L 2100 1900 
L 1700 1900 
L 1700 625 
Q 1875 650 2125 700 
Q 2050 975 1975 1225 
Q 2225 1300 2375 1350 
Q 2475 1075 2587 712 
Q 2700 350 2775 100 
Q 2600 50 2325 -50 
z
M 5075 1875 
Q 4900 2200 4750 2575 
L 4200 2575 
Q 4000 2175 3750 1875 
L 5075 1875 
z
M 2100 2300 
L 2100 3700 
L 1700 3700 
L 1700 2300 
L 2100 2300 
z
M 1275 2300 
L 1275 3700 
L 875 3700 
L 875 2300 
L 1275 2300 
z
M 4800 4350 
Q 4950 4575 5037 4737 
Q 5125 4900 5275 5175 
Q 5475 5025 5700 4850 
Q 5550 4700 5412 4512 
Q 5275 4325 5175 4125 
Q 4975 4250 4800 4350 
z
M 3350 5125 
Q 3475 5025 3587 4800 
Q 3700 4575 3850 4400 
Q 3675 4275 3500 4125 
Q 3400 4350 3262 4550 
Q 3125 4750 3050 4900 
Q 3200 5025 3350 5125 
z
" transform="scale(0.015625)"/>
      <path id="SimHei-7f29" d="M 5375 3400 
Q 5650 3400 6000 3425 
L 6000 3000 
Q 5650 3025 5025 3025 
L 4850 2325 
L 5850 2325 
Q 5825 1850 5825 1450 
L 5825 175 
Q 5825 -175 5850 -700 
L 5400 -700 
L 5400 -225 
L 4275 -225 
L 4275 -700 
L 3825 -700 
Q 3850 -200 3850 175 
L 3850 1450 
Q 3850 1850 3825 2325 
L 4400 2325 
Q 4500 2600 4575 3025 
Q 4100 3025 3750 3000 
L 3750 3425 
Q 4100 3400 4500 3400 
L 5375 3400 
z
M 1825 4975 
Q 1600 4725 1325 4175 
Q 1050 3625 775 3150 
Q 1100 3150 1450 3175 
Q 1575 3475 1675 3850 
Q 1925 3700 2225 3575 
Q 2000 3300 1750 2837 
Q 1500 2375 1025 1600 
Q 1575 1625 2125 1700 
Q 2075 1475 2100 1275 
Q 1850 1250 1375 1225 
Q 900 1200 475 1050 
Q 450 1300 300 1500 
Q 650 1650 837 1962 
Q 1025 2275 1300 2800 
Q 675 2775 375 2650 
Q 275 2925 200 3100 
Q 375 3150 537 3412 
Q 700 3675 962 4237 
Q 1225 4800 1275 5200 
Q 1550 5050 1825 4975 
z
M 3750 3675 
Q 3525 3475 3437 3312 
Q 3350 3150 3200 2900 
L 3200 -700 
L 2725 -700 
Q 2750 -275 2750 75 
L 2750 2275 
Q 2600 2075 2425 1775 
Q 2225 1950 2000 2050 
Q 2450 2475 2762 2975 
Q 3075 3475 3225 3900 
Q 3450 3750 3750 3675 
z
M 4375 5250 
Q 4450 5075 4575 4550 
L 6125 4550 
Q 6100 4300 6100 4100 
Q 6100 3900 6125 3675 
L 5650 3675 
L 5650 4150 
L 2900 4150 
L 2900 3425 
L 2425 3425 
Q 2450 3750 2450 4025 
Q 2450 4300 2425 4550 
L 4025 4550 
Q 3975 4850 3850 5125 
Q 4075 5200 4375 5250 
z
M 2225 600 
Q 2225 350 2250 125 
Q 1750 50 1262 -50 
Q 775 -150 400 -275 
Q 375 0 225 350 
Q 725 350 1125 400 
Q 1525 450 2225 600 
z
M 5400 1250 
L 5400 1950 
L 4275 1950 
L 4275 1250 
L 5400 1250 
z
M 5400 150 
L 5400 850 
L 4275 850 
L 4275 150 
L 5400 150 
z
" transform="scale(0.015625)"/>
     </defs>
     <use xlink:href="#SimHei-8737"/>
     <use xlink:href="#SimHei-7f29" x="100"/>
    </g>
   </g>
   <g id="text_9">
    <!-- 稍蜷 -->
    <g transform="translate(306.4448 208.97662)scale(0.1 -0.1)">
     <defs>
      <path id="SimHei-7a0d" d="M 4150 4425 
Q 4150 4850 4125 5275 
L 4650 5275 
Q 4625 4875 4625 4425 
L 4625 3325 
L 5900 3325 
Q 5875 2875 5875 2250 
L 5875 -150 
Q 5875 -425 5625 -525 
Q 5375 -625 4950 -700 
Q 4875 -325 4700 -100 
Q 5200 -100 5287 -62 
Q 5375 -25 5375 225 
L 5375 775 
L 3500 775 
L 3500 -650 
L 3000 -650 
Q 3025 -150 3025 400 
L 3025 2200 
Q 3025 2825 3000 3325 
L 4150 3325 
L 4150 4425 
z
M 2550 4650 
Q 2325 4650 1800 4475 
L 1800 3375 
Q 2125 3375 2600 3400 
L 2600 2925 
Q 2125 2950 1800 2950 
L 1800 2050 
Q 1950 2175 2125 2325 
Q 2600 1775 2775 1500 
Q 2525 1375 2325 1175 
Q 2175 1525 1800 1975 
Q 1800 -250 1825 -600 
L 1300 -600 
Q 1325 275 1325 1875 
Q 925 1000 575 575 
Q 425 850 200 1000 
Q 600 1400 875 1975 
Q 1150 2550 1250 2950 
Q 900 2950 350 2925 
L 350 3400 
Q 925 3375 1325 3375 
L 1325 4350 
Q 925 4275 600 4175 
Q 525 4425 375 4625 
Q 950 4725 1400 4825 
Q 1850 4925 2225 5150 
Q 2350 4900 2550 4650 
z
M 5375 1225 
L 5375 1825 
L 3500 1825 
L 3500 1225 
L 5375 1225 
z
M 5375 2275 
L 5375 2875 
L 3500 2875 
L 3500 2275 
L 5375 2275 
z
M 6175 4750 
Q 5950 4575 5750 4300 
Q 5550 4025 5375 3775 
Q 5175 3925 4925 4000 
Q 5300 4350 5650 5075 
Q 5850 4900 6175 4750 
z
M 3250 4975 
Q 3525 4350 3750 3975 
Q 3500 3875 3300 3725 
Q 3000 4425 2800 4750 
Q 3025 4850 3250 4975 
z
" transform="scale(0.015625)"/>
     </defs>
     <use xlink:href="#SimHei-7a0d"/>
     <use xlink:href="#SimHei-8737" x="100"/>
    </g>
   </g>
   <g id="patch_10">
    <path d="M 316.4448 242.652166 
Q 316.4448 204.682452 316.4448 165.594704 
" style="fill: none; stroke: #000000; stroke-linecap: round"/>
    <path d="M 318.4448 238.652166 
L 316.4448 242.652166 
L 314.4448 238.652166 
" style="fill: none; stroke: #000000; stroke-linecap: round"/>
   </g>
   <g id="text_10">
    <g id="patch_11">
     <path d="M 303.4448 261.606209 
L 329.4448 261.606209 
L 329.4448 246.270271 
L 303.4448 246.270271 
z
" style="fill: #e6e6e6; stroke: #000000; stroke-linejoin: miter"/>
    </g>
    <!-- 脐部 -->
    <g transform="translate(306.4448 257.356209)scale(0.1 -0.1)">
     <defs>
      <path id="SimHei-8110" d="M 2375 4825 
Q 2350 4375 2350 3925 
L 2350 200 
Q 2350 -300 1500 -375 
Q 1500 -150 1325 175 
Q 1900 125 1900 325 
L 1900 1550 
L 1175 1550 
Q 1125 950 1000 362 
Q 875 -225 700 -575 
Q 475 -350 250 -250 
Q 500 200 600 687 
Q 700 1175 737 1700 
Q 775 2225 775 3225 
Q 775 4225 750 4825 
L 2375 4825 
z
M 3950 1975 
Q 3875 1725 3812 1162 
Q 3750 600 3575 187 
Q 3400 -225 3000 -700 
Q 2775 -500 2475 -425 
Q 3050 75 3225 675 
Q 3425 1250 3350 2000 
Q 3100 1925 2750 1800 
Q 2675 2025 2400 2250 
Q 2950 2325 3337 2487 
Q 3725 2650 3975 2825 
Q 3450 3425 3275 4200 
L 3250 4200 
Q 2925 4200 2650 4175 
L 2650 4600 
Q 3150 4575 3500 4575 
L 4150 4575 
Q 4075 4900 3975 5125 
Q 4225 5175 4450 5250 
Q 4550 4950 4625 4575 
L 5375 4575 
Q 5700 4575 5975 4600 
L 5975 4175 
Q 5600 4200 5350 4200 
Q 5225 3825 5075 3512 
Q 4925 3200 4650 2850 
Q 4900 2700 5262 2562 
Q 5625 2425 6200 2350 
Q 6000 2150 5925 1875 
Q 5350 2025 4987 2187 
Q 4625 2350 4325 2525 
Q 3975 2300 3450 2050 
Q 3725 2000 3950 1975 
z
M 5250 2050 
Q 5225 1800 5225 1575 
L 5225 -25 
Q 5225 -350 5250 -600 
L 4750 -600 
Q 4775 -350 4775 -50 
L 4775 1550 
Q 4775 1800 4750 2050 
L 5250 2050 
z
M 3750 4200 
Q 3875 3600 4325 3150 
Q 4650 3525 4875 4200 
L 3750 4200 
z
M 1900 3350 
L 1900 4400 
L 1225 4400 
L 1225 3350 
L 1900 3350 
z
M 1900 1950 
L 1900 2925 
L 1225 2925 
L 1225 1950 
L 1900 1950 
z
" transform="scale(0.015625)"/>
      <path id="SimHei-90e8" d="M 5300 2650 
Q 5750 2200 5962 1812 
Q 6175 1425 6150 1025 
Q 6125 625 5812 412 
Q 5500 200 4875 125 
Q 4825 400 4650 725 
Q 5250 725 5437 862 
Q 5625 1000 5612 1225 
Q 5600 1450 5350 1850 
Q 5100 2250 4775 2575 
Q 4975 3025 5300 4300 
L 4400 4300 
L 4400 -625 
L 3900 -625 
Q 3925 -100 3925 575 
L 3925 3625 
Q 3925 4175 3875 4725 
L 5975 4725 
Q 5575 3425 5300 2650 
z
M 3225 1775 
Q 3200 1200 3200 625 
Q 3200 50 3225 -575 
L 2725 -575 
L 2725 -75 
L 1375 -75 
L 1375 -575 
L 875 -575 
Q 900 -50 900 525 
Q 900 1125 875 1775 
L 3225 1775 
z
M 1925 5275 
Q 2325 4775 2450 4550 
Q 2300 4475 2175 4400 
Q 3225 4400 3500 4425 
L 3500 3950 
Q 3325 3950 2825 3975 
L 3250 3775 
Q 3075 3500 2750 2800 
Q 3350 2800 3675 2825 
L 3675 2350 
Q 3350 2375 3025 2375 
L 1150 2375 
Q 700 2375 400 2350 
L 400 2825 
Q 575 2800 1350 2800 
Q 1175 3225 900 3675 
Q 1100 3775 1325 3900 
Q 1575 3550 1850 3025 
Q 1600 2900 1475 2800 
L 2275 2800 
Q 2600 3575 2675 3975 
L 2075 3975 
Q 925 3975 575 3950 
L 575 4425 
Q 875 4400 1925 4400 
Q 1725 4800 1525 5025 
Q 1750 5150 1925 5275 
z
M 2725 325 
L 2725 1375 
L 1375 1375 
L 1375 325 
L 2725 325 
z
" transform="scale(0.015625)"/>
     </defs>
     <use xlink:href="#SimHei-8110"/>
     <use xlink:href="#SimHei-90e8" x="100"/>
    </g>
   </g>
   <g id="text_11">
    <!-- 稍凹 -->
    <g transform="translate(288.7376 305.755329)scale(0.1 -0.1)">
     <defs>
      <path id="SimHei-51f9" d="M 2650 2400 
L 3675 2400 
L 3675 4625 
L 5750 4625 
Q 5725 4175 5725 3525 
L 5725 475 
Q 5725 0 5750 -450 
L 5250 -450 
L 5250 100 
L 1150 100 
L 1150 -425 
L 650 -425 
Q 675 50 675 525 
L 675 3575 
Q 675 4150 650 4625 
L 2650 4625 
L 2650 2400 
z
M 5250 525 
L 5250 4200 
L 4150 4200 
L 4150 1975 
L 2200 1975 
L 2200 4200 
L 1150 4200 
L 1150 525 
L 5250 525 
z
" transform="scale(0.015625)"/>
     </defs>
     <use xlink:href="#SimHei-7a0d"/>
     <use xlink:href="#SimHei-51f9" x="100"/>
    </g>
   </g>
   <g id="patch_12">
    <path d="M 285.345917 339.727243 
Q 300.326449 301.510685 315.71501 262.253209 
" style="fill: none; stroke: #000000; stroke-linecap: round"/>
    <path d="M 288.667782 336.733047 
L 285.345917 339.727243 
L 284.943679 335.273233 
" style="fill: none; stroke: #000000; stroke-linecap: round"/>
   </g>
   <g id="text_12">
    <g id="patch_13">
     <path d="M 243.0304 358.345855 
L 319.0304 358.345855 
L 319.0304 343.127105 
L 243.0304 343.127105 
z
" style="fill: #e6e6e6; stroke: #000000; stroke-linejoin: miter"/>
    </g>
    <!-- 含糖率≤0.3035 -->
    <g transform="translate(246.0304 354.095855)scale(0.1 -0.1)">
     <defs>
      <path id="SimHei-33" d="M 250 1225 
L 700 1300 
Q 800 975 1025 762 
Q 1250 550 1587 562 
Q 1925 575 2125 837 
Q 2325 1100 2300 1437 
Q 2275 1775 2037 1962 
Q 1800 2150 1275 2225 
L 1275 2550 
Q 1800 2600 2037 2825 
Q 2275 3050 2250 3412 
Q 2225 3775 1925 3937 
Q 1625 4100 1287 3975 
Q 950 3850 750 3275 
L 300 3350 
Q 450 3800 712 4100 
Q 975 4400 1425 4450 
Q 1875 4500 2212 4337 
Q 2550 4175 2687 3837 
Q 2825 3500 2725 3100 
Q 2625 2700 2150 2400 
Q 2500 2250 2687 1950 
Q 2875 1650 2812 1162 
Q 2750 675 2375 375 
Q 2000 75 1525 87 
Q 1050 100 700 387 
Q 350 675 250 1225 
z
" transform="scale(0.015625)"/>
      <path id="SimHei-35" d="M 550 1325 
Q 725 650 1150 575 
Q 1575 500 1837 662 
Q 2100 825 2212 1087 
Q 2325 1350 2312 1675 
Q 2300 2000 2137 2225 
Q 1975 2450 1725 2525 
Q 1475 2600 1162 2525 
Q 850 2450 650 2175 
L 225 2225 
Q 275 2375 700 4375 
L 2675 4375 
L 2675 3925 
L 1075 3925 
Q 950 3250 825 2850 
Q 1200 3025 1525 3012 
Q 1850 3000 2150 2862 
Q 2450 2725 2587 2487 
Q 2725 2250 2787 2012 
Q 2850 1775 2837 1500 
Q 2825 1225 2725 937 
Q 2625 650 2425 462 
Q 2225 275 1937 162 
Q 1650 50 1275 75 
Q 900 100 562 350 
Q 225 600 100 1200 
L 550 1325 
z
" transform="scale(0.015625)"/>
     </defs>
     <use xlink:href="#SimHei-542b"/>
     <use xlink:href="#SimHei-7cd6" x="100"/>
     <use xlink:href="#SimHei-7387" x="200"/>
     <use xlink:href="#SimHei-2264" x="300"/>
     <use xlink:href="#SimHei-30" x="400"/>
     <use xlink:href="#SimHei-2e" x="450"/>
     <use xlink:href="#SimHei-33" x="500"/>
     <use xlink:href="#SimHei-30" x="550"/>
     <use xlink:href="#SimHei-33" x="600"/>
     <use xlink:href="#SimHei-35" x="650"/>
    </g>
   </g>
   <g id="patch_14">
    <path d="M 249.75855 436.966738 
Q 264.825495 398.52973 280.300471 359.051804 
" style="fill: none; stroke: #000000; stroke-linecap: round"/>
    <path d="M 253.080415 433.972541 
L 249.75855 436.966738 
L 249.356312 432.512728 
" style="fill: none; stroke: #000000; stroke-linecap: round"/>
   </g>
   <g id="text_13">
    <g id="patch_15">
     <path d="M 234.116 453.624564 
C 235.616 455.124564 255.616 455.124564 257.116 453.624564 
C 258.616 452.124564 258.616 442.944876 257.116 441.444876 
C 255.616 439.944876 235.616 439.944876 234.116 441.444876 
C 232.616 442.944876 232.616 452.124564 234.116 453.624564 
z
" style="fill: #cccccc; stroke: #000000; stroke-linejoin: miter"/>
    </g>
    <!-- 好瓜 -->
    <g transform="translate(235.616 450.874564)scale(0.1 -0.1)">
     <use xlink:href="#SimHei-597d"/>
     <use xlink:href="#SimHei-74dc" x="100"/>
    </g>
   </g>
   <g id="text_14">
    <!-- 是 -->
    <g transform="translate(258.3232 402.299663)scale(0.1 -0.1)">
     <use xlink:href="#SimHei-662f"/>
    </g>
   </g>
   <g id="patch_16">
    <path d="M 312.340283 437.063761 
Q 297.254759 398.57936 281.761205 359.05404 
" style="fill: none; stroke: #000000; stroke-linecap: round"/>
    <path d="M 312.742521 432.609751 
L 312.340283 437.063761 
L 309.018418 434.069565 
" style="fill: none; stroke: #000000; stroke-linecap: round"/>
   </g>
   <g id="text_15">
    <g id="patch_17">
     <path d="M 304.9448 453.526907 
C 306.4448 455.026907 326.4448 455.026907 327.9448 453.526907 
C 329.4448 452.026907 329.4448 443.042532 327.9448 441.542532 
C 326.4448 440.042532 306.4448 440.042532 304.9448 441.542532 
C 303.4448 443.042532 303.4448 452.026907 304.9448 453.526907 
z
" style="fill: #cccccc; stroke: #000000; stroke-linejoin: miter"/>
    </g>
    <!-- 坏瓜 -->
    <g transform="translate(306.4448 450.776907)scale(0.1 -0.1)">
     <use xlink:href="#SimHei-574f"/>
     <use xlink:href="#SimHei-74dc" x="100"/>
    </g>
   </g>
   <g id="text_16">
    <!-- 否 -->
    <g transform="translate(293.7376 402.123881)scale(0.1 -0.1)">
     <use xlink:href="#SimHei-5426"/>
    </g>
   </g>
   <g id="patch_18">
    <path d="M 379.522616 340.849784 
Q 348.946475 301.848668 317.680531 261.967681 
" style="fill: none; stroke: #000000; stroke-linecap: round"/>
    <path d="M 378.628666 336.467906 
L 379.522616 340.849784 
L 375.480744 338.935818 
" style="fill: none; stroke: #000000; stroke-linecap: round"/>
   </g>
   <g id="text_17">
    <g id="patch_19">
     <path d="M 375.7736 356.728668 
C 377.2736 358.228668 397.2736 358.228668 398.7736 356.728668 
C 400.2736 355.228668 400.2736 346.244293 398.7736 344.744293 
C 397.2736 343.244293 377.2736 343.244293 375.7736 344.744293 
C 374.2736 346.244293 374.2736 355.228668 375.7736 356.728668 
z
" style="fill: #cccccc; stroke: #000000; stroke-linejoin: miter"/>
    </g>
    <!-- 坏瓜 -->
    <g transform="translate(377.2736 353.978668)scale(0.1 -0.1)">
     <use xlink:href="#SimHei-574f"/>
     <use xlink:href="#SimHei-74dc" x="100"/>
    </g>
   </g>
   <g id="text_18">
    <!-- 凹陷 -->
    <g transform="translate(341.8592 305.657672)scale(0.1 -0.1)">
     <defs>
      <path id="SimHei-9677" d="M 4150 2325 
Q 3900 2300 3200 2225 
L 3200 1450 
Q 3750 1450 4050 1475 
L 4050 1050 
Q 3725 1075 3200 1075 
L 3200 200 
L 5575 200 
L 5575 1075 
Q 4925 1075 4550 1050 
L 4550 1475 
Q 4925 1450 5575 1450 
L 5575 2250 
Q 4925 2250 4575 2225 
L 4575 2650 
Q 4950 2625 5325 2625 
L 6075 2625 
Q 6050 2300 6050 1775 
L 6050 500 
Q 6050 0 6075 -525 
L 5575 -525 
L 5575 -200 
L 3200 -200 
L 3200 -625 
L 2675 -625 
Q 2700 -250 2700 250 
L 2700 1700 
Q 2700 2175 2675 2575 
Q 2925 2575 3237 2612 
Q 3550 2650 3875 2800 
Q 3950 2575 4150 2325 
z
M 2475 4675 
Q 2350 4475 1750 2825 
Q 2125 2250 2250 1612 
Q 2375 975 2050 737 
Q 1725 500 1325 425 
Q 1275 725 1075 925 
Q 1575 950 1687 1112 
Q 1800 1275 1737 1625 
Q 1675 1975 1250 2800 
Q 1375 3125 1725 4300 
L 850 4300 
L 850 -600 
L 325 -600 
Q 375 -75 375 700 
L 375 3625 
Q 375 4175 325 4675 
L 2475 4675 
z
M 4200 5025 
Q 4100 4925 4025 4800 
Q 3950 4675 3850 4450 
L 5800 4450 
Q 5625 4150 5450 3825 
Q 5275 3500 5025 3025 
Q 4775 3125 4525 3175 
Q 4700 3425 5000 4075 
L 3650 4075 
Q 3275 3425 2900 2975 
Q 2675 3125 2400 3200 
Q 2800 3550 3112 4100 
Q 3425 4650 3600 5225 
Q 3875 5100 4200 5025 
z
" transform="scale(0.015625)"/>
     </defs>
     <use xlink:href="#SimHei-51f9"/>
     <use xlink:href="#SimHei-9677" x="100"/>
    </g>
   </g>
   <g id="patch_20">
    <path d="M 444.741952 245.417342 
Q 381.906759 205.342915 318.128924 164.667301 
" style="fill: none; stroke: #000000; stroke-linecap: round"/>
    <path d="M 442.444895 241.580216 
L 444.741952 245.417342 
L 440.294017 244.952712 
" style="fill: none; stroke: #000000; stroke-linecap: round"/>
   </g>
   <g id="text_19">
    <g id="patch_21">
     <path d="M 446.6024 259.930428 
C 448.1024 261.430428 468.1024 261.430428 469.6024 259.930428 
C 471.1024 258.430428 471.1024 249.446053 469.6024 247.946053 
C 468.1024 246.446053 448.1024 246.446053 446.6024 247.946053 
C 445.1024 249.446053 445.1024 258.430428 446.6024 259.930428 
z
" style="fill: #cccccc; stroke: #000000; stroke-linejoin: miter"/>
    </g>
    <!-- 坏瓜 -->
    <g transform="translate(448.1024 257.180428)scale(0.1 -0.1)">
     <use xlink:href="#SimHei-574f"/>
     <use xlink:href="#SimHei-74dc" x="100"/>
    </g>
   </g>
   <g id="text_20">
    <!-- 硬挺 -->
    <g transform="translate(377.2736 208.82037)scale(0.1 -0.1)">
     <defs>
      <path id="SimHei-786c" d="M 3600 1000 
Q 3700 875 3875 750 
Q 4025 1000 4075 1525 
L 2825 1525 
Q 2850 2300 2850 2800 
Q 2850 3300 2825 3900 
L 4075 3900 
L 4075 4525 
L 3675 4525 
Q 3075 4525 2700 4500 
L 2700 4925 
Q 3050 4900 3725 4900 
L 4975 4900 
Q 5425 4900 5875 4925 
L 5875 4500 
Q 5500 4525 5025 4525 
L 4500 4525 
L 4500 3900 
L 5725 3900 
Q 5700 3300 5700 2775 
Q 5700 2275 5725 1525 
L 4500 1525 
Q 4450 925 4225 500 
Q 4625 250 5175 100 
Q 5725 -50 6050 -50 
Q 5800 -375 5775 -525 
Q 5050 -375 4000 150 
Q 3825 -25 3550 -225 
Q 3275 -425 2850 -625 
Q 2775 -425 2500 -250 
Q 3125 -75 3625 400 
Q 3275 700 2950 1125 
Q 3150 1200 3300 1375 
L 3600 1000 
z
M 200 2150 
Q 425 2325 662 2725 
Q 900 3125 1075 3600 
Q 1250 4075 1300 4375 
Q 850 4375 500 4350 
L 500 4800 
Q 850 4775 1175 4775 
L 1825 4775 
Q 2150 4775 2475 4800 
L 2475 4350 
Q 2100 4375 1775 4375 
Q 1625 3800 1350 3075 
L 2575 3075 
Q 2550 2625 2550 2225 
L 2550 1100 
Q 2550 675 2575 125 
L 2100 125 
L 2100 600 
L 1375 600 
L 1375 -150 
L 925 -150 
Q 950 400 950 800 
L 950 2350 
Q 700 1950 575 1800 
Q 425 2025 200 2150 
z
M 2100 1000 
L 2100 2675 
L 1375 2675 
L 1375 1000 
L 2100 1000 
z
M 4075 1950 
L 4075 2550 
L 3300 2550 
L 3300 1950 
L 4075 1950 
z
M 4075 2900 
L 4075 3500 
L 3300 3500 
L 3300 2900 
L 4075 2900 
z
M 5275 1950 
L 5275 2550 
L 4500 2550 
L 4500 1950 
L 5275 1950 
z
M 5275 2900 
L 5275 3500 
L 4500 3500 
L 4500 2900 
L 5275 2900 
z
" transform="scale(0.015625)"/>
      <path id="SimHei-633a" d="M 3375 4650 
Q 3300 4375 3162 3937 
Q 3025 3500 2800 2825 
L 3450 2825 
Q 3375 2000 3262 1462 
Q 3150 925 3000 575 
Q 3575 175 4162 100 
Q 4750 25 5175 50 
Q 5600 75 6125 150 
Q 6000 -75 5900 -425 
L 4825 -425 
Q 4400 -425 3825 -300 
Q 3250 -175 2750 200 
Q 2450 -225 2100 -550 
Q 1950 -375 1700 -250 
Q 2100 0 2400 500 
Q 2075 1000 1900 1650 
Q 2125 1700 2325 1800 
Q 2475 1200 2675 950 
Q 2800 1300 2875 1675 
Q 2950 2050 2975 2425 
Q 2500 2425 2325 2325 
Q 2250 2550 2150 2775 
Q 2400 2925 2500 3250 
Q 2600 3575 2800 4275 
Q 2250 4275 1975 4250 
L 1975 4675 
Q 2300 4650 2800 4650 
L 3375 4650 
z
M 5775 4475 
Q 5475 4450 5000 4350 
L 5000 3000 
Q 5600 3000 5825 3025 
L 5825 2575 
Q 5600 2600 5000 2600 
L 5000 1200 
Q 5675 1200 5975 1225 
L 5975 800 
Q 5675 825 5200 825 
L 4525 825 
Q 3975 825 3575 800 
L 3575 1225 
Q 3925 1200 4525 1200 
L 4525 2600 
Q 4125 2600 3725 2575 
L 3725 3025 
Q 4075 3000 4525 3000 
L 4525 4300 
Q 4050 4250 3750 4175 
Q 3700 4375 3575 4625 
Q 4325 4675 4712 4750 
Q 5100 4825 5525 4975 
Q 5600 4775 5775 4475 
z
M 1000 3900 
Q 1000 4800 975 5175 
L 1475 5175 
Q 1450 4925 1450 3900 
Q 1675 3900 2000 3925 
L 2000 3475 
Q 1675 3500 1450 3500 
L 1450 2300 
Q 1700 2375 1900 2475 
Q 1900 2325 1925 2025 
Q 1775 1975 1450 1825 
L 1450 -100 
Q 1425 -375 1237 -450 
Q 1050 -525 575 -625 
Q 575 -400 350 -75 
Q 1025 -100 1000 75 
L 1000 1675 
Q 650 1500 400 1400 
Q 325 1700 200 1950 
Q 450 1975 1000 2150 
L 1000 3500 
Q 600 3500 300 3475 
L 300 3925 
Q 575 3900 1000 3900 
z
" transform="scale(0.015625)"/>
     </defs>
     <use xlink:href="#SimHei-786c"/>
     <use xlink:href="#SimHei-633a" x="100"/>
    </g>
   </g>
  </g>
 </g>
</svg>
